<svg width="32" height="32" viewBox="0 0 32 32" fill="none" xmlns="http://www.w3.org/2000/svg">
<g clip-path="url(#clip0_842_10794)">
<path d="M23.8719 2.56002C24.0959 2.16002 23.9519 1.64802 23.5519 1.42402C23.1519 1.20002 22.6399 1.34402 22.4159 1.74402C22.4159 1.74402 20.4799 5.92002 20.8799 6.14402C21.2799 6.36802 23.8559 2.56002 23.8559 2.56002H23.8719Z" fill="white"/>
<path d="M18.304 5.424C18.768 5.424 19.088 0.832 19.088 0.832C19.088 0.368 18.704 0 18.256 0C17.792 0 17.424 0.384 17.44 0.832C17.44 0.832 17.856 5.424 18.32 5.408L18.304 5.424Z" fill="white"/>
<path d="M15.6959 6.09569C16.0959 5.85569 14.0799 1.71169 14.0799 1.71169C13.8399 1.31169 13.3439 1.18369 12.9439 1.42369C12.5439 1.66369 12.4159 2.15969 12.6559 2.55969C12.6559 2.55969 15.3119 6.31969 15.7119 6.09569H15.6959Z" fill="white"/>
<path d="M28.272 9.88844C27.536 9.02444 25.6 9.15244 24.48 9.85644C23.12 10.7204 22.176 11.6804 21.44 12.7204C21.392 12.8004 21.344 12.8644 21.296 12.9444C21.04 13.2964 20.464 13.9524 19.632 14.1124C19.024 14.2404 18.56 13.9364 18.32 13.7284C18.256 13.6644 18.192 13.6004 18.144 13.5364C14.64 9.96844 10.24 6.56044 7.07196 4.88044C6.19196 4.41644 5.10396 4.75244 4.63996 5.63244C4.17596 6.51244 4.51196 7.60044 5.39196 8.06444C7.59996 9.23244 10.304 11.3924 12.8 13.8404C14.496 15.2164 16.384 17.0564 18.224 19.1844C19.12 20.2244 19.008 21.7924 17.968 22.6884C17.52 23.0724 16.944 23.2964 16.336 23.2964C16.144 23.2964 15.936 23.2644 15.76 23.2324C15.792 23.4244 15.808 23.6324 15.792 23.8244C15.744 24.4804 15.456 25.0884 14.96 25.5364C14.512 25.9364 13.92 26.1604 13.312 26.1604C13.12 26.1604 12.912 26.1284 12.736 26.0964C12.784 26.3204 12.8 26.5604 12.784 26.7844C12.736 27.4404 12.448 28.0484 11.936 28.4964C11.568 28.8164 11.12 29.0244 10.64 29.0884C13.232 31.5364 16.992 33.4084 21.84 30.6244C24.912 28.8644 27.856 25.3924 23.792 19.4084C24.128 16.5604 24.912 14.3524 27.824 12.5764C28.928 11.9044 29.024 10.8164 28.256 9.90444L28.272 9.88844Z" fill="white"/>
<path d="M15.0079 21.9526C15.3439 22.3526 15.8399 22.5446 16.3199 22.5446C16.7199 22.5446 17.1199 22.4006 17.4559 22.1286C18.1759 21.5046 18.2559 20.4006 17.6319 19.6806C15.3599 17.0566 13.0239 14.8486 11.0719 13.5046C10.2879 12.9606 9.19994 13.1526 8.65594 13.9366C8.11194 14.7206 8.30394 15.8086 9.08794 16.3526C10.8159 17.5526 12.9119 19.5366 15.0079 21.9526Z" fill="white"/>
<path d="M5.90399 17.1042C5.35999 17.8882 5.55199 18.9762 6.33599 19.5202C7.98399 20.6562 9.98399 22.5442 12 24.8322C12.336 25.2162 12.816 25.4242 13.296 25.4242C13.696 25.4242 14.112 25.2802 14.432 24.9922C15.152 24.3522 15.216 23.2642 14.592 22.5442C13.04 20.7842 10.704 18.3522 8.30399 16.6882C7.51999 16.1442 6.43199 16.3362 5.88799 17.1202L5.90399 17.1042Z" fill="white"/>
<path d="M11.584 25.472C9.61596 23.216 7.66396 21.376 5.98396 20.16C5.21596 19.6 4.12796 19.776 3.56796 20.544C3.00796 21.328 3.18396 22.4 3.95196 22.96C5.42396 24.016 7.19996 25.712 8.97596 27.76C9.31196 28.144 9.79196 28.352 10.288 28.352C10.688 28.352 11.104 28.208 11.424 27.92C12.144 27.296 12.224 26.192 11.584 25.472Z" fill="white"/>
</g>
<defs>
<clipPath id="clip0_842_10794">
<rect width="16" height="16" fill="white" transform="scale(2)"/>
</clipPath>
</defs>
</svg>
