<?xml version="1.0" encoding="UTF-8"?>
<svg xmlns="http://www.w3.org/2000/svg" version="1.1" viewBox="0 0 93.3 93.3">
  <defs>
    <style>
      .cls-1 {
        fill: #fff;
      }
    </style>
  </defs>
  <!-- Generator: Adobe Illustrator 28.7.1, SVG Export Plug-In . SVG Version: 1.2.0 Build 142)  -->
  <g>
    <g id="Layer_2">
      <g>
        <path class="cls-1" d="M60.8,18.1h0c-1.2-.7,4.5-12.8,4.5-12.8.7-1.2,2.1-1.6,3.3-.9h0c1.2.7,1.6,2.1.9,3.3,0,0-7.5,11.1-8.6,10.4Z"/>
        <path class="cls-1" d="M53.3,16h0c-1.3,0-2.5-13.3-2.5-13.3,0-1.3,1.1-2.4,2.4-2.4h0c1.3,0,2.4,1.1,2.4,2.4,0,0-.9,13.3-2.3,13.3Z"/>
        <path class="cls-1" d="M45.7,17.9h0c-1.1.7-8.8-10.2-8.8-10.2-.7-1.1-.3-2.6.8-3.3h0c1.1-.7,2.6-.3,3.3.9,0,0,5.8,12,4.7,12.7Z"/>
        <path class="cls-1" d="M82.2,28.9c-2.1-2.5-7.8-2.2-11-.1-4,2.5-6.7,5.3-8.8,8.3h0s0,0,0,0c-.1.2-.3.4-.4.6-.8,1-2.4,2.9-4.8,3.4-1.8.4-3.1-.5-3.8-1.1-.2-.2-.4-.4-.5-.5h0c-10.2-10.3-22.9-20.2-32.1-25.1-2.5-1.3-5.7-.4-7,2.2-1.3,2.5-.4,5.7,2.2,7,6.4,3.4,14.2,9.6,21.5,16.7,4.9,4,10.4,9.3,15.7,15.5,2.6,3,2.3,7.6-.7,10.2-1.3,1.1-3,1.8-4.7,1.8s-1.1,0-1.7-.2c0,.6.1,1.1,0,1.7-.1,1.9-1,3.7-2.4,4.9-1.3,1.2-3,1.8-4.8,1.8s-1.1,0-1.7-.2c.1.7.2,1.3.1,2-.1,1.9-1,3.7-2.4,4.9-1.1.9-2.4,1.5-3.7,1.7,7.5,7.1,18.4,12.5,32.5,4.4,8.9-5.1,17.4-15.2,5.7-32.5,1-8.2,3.2-14.6,11.7-19.8,3.2-2,3.5-5.1,1.2-7.8Z"/>
        <path class="cls-1" d="M47.6,65.6c-1.4,0-2.8-.6-3.8-1.7-6.1-7-12.2-12.8-17.2-16.3-2.3-1.6-2.8-4.7-1.3-7,1.6-2.3,4.7-2.8,7-1.3,5.7,3.9,12.4,10.3,19,17.9,1.8,2.1,1.6,5.3-.5,7.1-.9.8-2.1,1.2-3.3,1.2Z"/>
        <path class="cls-1" d="M38.8,73.9c-1.4,0-2.8-.6-3.8-1.7-5.8-6.6-11.6-12.1-16.4-15.4-2.3-1.6-2.8-4.7-1.3-7,1.6-2.3,4.7-2.8,7-1.3,6.9,4.8,13.7,11.9,18.2,17,1.8,2.1,1.6,5.3-.5,7.1-1,.8-2.1,1.3-3.3,1.3Z"/>
        <path class="cls-1" d="M30.1,82.4c-1.4,0-2.8-.6-3.8-1.7-5.2-5.9-10.3-10.8-14.6-13.9-2.2-1.6-2.8-4.8-1.1-7,1.6-2.3,4.8-2.8,7-1.1,4.9,3.5,10.5,8.9,16.3,15.4,1.8,2.1,1.6,5.3-.5,7.1-1,.8-2.1,1.2-3.3,1.2Z"/>
      </g>
    </g>
  </g>
</svg>