<svg width="14" height="14" viewBox="0 0 14 14" fill="none" xmlns="http://www.w3.org/2000/svg">
<g clip-path="url(#clip0_32_2284)">
<mask id="mask0_32_2284" style="mask-type:luminance" maskUnits="userSpaceOnUse" x="0" y="0" width="14" height="14">
<path d="M14 0H0V14H14V0Z" fill="white"/>
</mask>
<g mask="url(#mask0_32_2284)">
<mask id="mask1_32_2284" style="mask-type:luminance" maskUnits="userSpaceOnUse" x="0" y="0" width="14" height="14">
<path d="M14 0H0V14H14V0Z" fill="white"/>
</mask>
<g mask="url(#mask1_32_2284)">
<path d="M10.087 2.01994C10.1874 1.91955 10.321 1.8592 10.4628 1.85018C10.6045 1.84116 10.7446 1.88409 10.857 1.97094L10.912 2.01994L12.562 3.66994C12.6681 3.77447 12.7302 3.91563 12.7355 4.06447C12.7408 4.21331 12.6889 4.35854 12.5905 4.47035C12.4921 4.58216 12.3547 4.65209 12.2064 4.66577C12.0581 4.67946 11.9102 4.63587 11.793 4.54394L11.737 4.49494L11.081 3.84194V11.0839C11.079 11.2316 11.0212 11.3729 10.9192 11.4797C10.8172 11.5864 10.6785 11.6505 10.5311 11.6591C10.3838 11.6677 10.2386 11.6202 10.1248 11.5261C10.0111 11.432 9.93717 11.2983 9.918 11.1519V11.0839V3.84194L9.264 4.49494C9.15864 4.59805 9.01819 4.6575 8.87082 4.66137C8.72346 4.66523 8.58008 4.61321 8.46947 4.51576C8.35886 4.41831 8.28919 4.28264 8.27445 4.13596C8.25971 3.98928 8.30099 3.84245 8.39 3.72494L8.439 3.66994L10.087 2.01994Z" fill="#606F95"/>
<path d="M7.583 10.4999C7.73054 10.5021 7.87178 10.5601 7.97831 10.6622C8.08485 10.7643 8.14879 10.9029 8.15727 11.0502C8.16576 11.1975 8.11817 11.3426 8.02406 11.4563C7.92995 11.5699 7.79631 11.6437 7.65 11.6629H7.582H2.333C2.18545 11.6607 2.04422 11.6027 1.93768 11.5006C1.83114 11.3985 1.76721 11.2598 1.75872 11.1125C1.75023 10.9652 1.79783 10.8201 1.89193 10.7065C1.98604 10.5928 2.11968 10.519 2.266 10.4999H2.334H7.583Z" fill="#C8CDD9"/>
<path d="M7.583 6.41589C7.73775 6.41589 7.88617 6.47737 7.99559 6.5868C8.10502 6.69622 8.1665 6.84464 8.1665 6.99939C8.1665 7.15415 8.10502 7.30256 7.99559 7.41199C7.88617 7.52142 7.73775 7.58289 7.583 7.58289H2.333C2.17824 7.58289 2.02983 7.52142 1.9204 7.41199C1.81097 7.30256 1.7495 7.15415 1.7495 6.99939C1.7495 6.84464 1.81097 6.69622 1.9204 6.5868C2.02983 6.47737 2.17824 6.41589 2.333 6.41589H7.583Z" fill="#C8CDD9"/>
<path d="M6.417 2.33289C6.57175 2.33289 6.72017 2.39436 6.82959 2.50379C6.93902 2.61322 7.0005 2.76163 7.0005 2.91639C7.0005 3.07114 6.93902 3.21956 6.82959 3.32898C6.72017 3.43841 6.57175 3.49989 6.417 3.49989H2.333C2.17824 3.49989 2.02983 3.43841 1.9204 3.32898C1.81097 3.21956 1.7495 3.07114 1.7495 2.91639C1.7495 2.76163 1.81097 2.61322 1.9204 2.50379C2.02983 2.39436 2.17824 2.33289 2.333 2.33289H6.417Z" fill="#C8CDD9"/>
</g>
</g>
</g>
<defs>
<clipPath id="clip0_32_2284">
<rect width="14" height="14" fill="white"/>
</clipPath>
</defs>
</svg>
