<svg width="38" height="38" viewBox="0 0 38 38" fill="none" xmlns="http://www.w3.org/2000/svg">
<g opacity="0.2">
<mask id="mask0_837_11633" style="mask-type:luminance" maskUnits="userSpaceOnUse" x="0" y="0" width="39" height="39">
<path d="M38.002 0H0V38.002H38.002V0Z" fill="white"/>
</mask>
<g mask="url(#mask0_837_11633)">
<path d="M18.9997 0C22.7575 0 26.4309 1.11431 29.5554 3.20203C32.6799 5.28974 35.1151 8.25709 36.5532 11.7288C37.9912 15.2006 38.3675 19.0208 37.6343 22.7064C36.9012 26.392 35.0917 29.7774 32.4345 32.4345C29.7774 35.0917 26.392 36.9012 22.7064 37.6343C19.0208 38.3675 15.2006 37.9912 11.7288 36.5532C8.25709 35.1151 5.28974 32.6799 3.20203 29.5554C1.11431 26.4309 0 22.7575 0 18.9997C0.000679683 13.9609 2.00265 9.12863 5.56564 5.56564C9.12863 2.00265 13.9609 0.000679683 18.9997 0Z" fill="white"/>
</g>
</g>
<path d="M16.7951 26.4566C17.082 26.7116 17.4553 26.8475 17.839 26.8367C18.2226 26.8259 18.5877 26.6691 18.8597 26.3984C19.1318 26.1277 19.2903 25.7634 19.3029 25.3798C19.3156 24.9962 19.1815 24.6222 18.9279 24.3341L15.1059 20.5147H26.5334C26.9331 20.5147 27.3165 20.3559 27.5992 20.0732C27.8818 19.7906 28.0406 19.4072 28.0406 19.0074C28.0406 18.6077 27.8818 18.2243 27.5992 17.9416C27.3165 17.659 26.9331 17.5002 26.5334 17.5002H15.1059L18.9279 13.6731C19.1931 13.3869 19.3371 13.009 19.3295 12.6189C19.3219 12.2288 19.1633 11.8568 18.8871 11.5812C18.6108 11.3057 18.2385 11.1479 17.8483 11.1413C17.4582 11.1346 17.0806 11.2795 16.7951 11.5455L10.4021 17.9257C10.12 18.2079 9.96155 18.5905 9.96155 18.9895C9.96155 19.3885 10.12 19.7711 10.4021 20.0533L16.7951 26.4566Z" fill="white"/>
</svg>
