<svg width="18" height="19" viewBox="0 0 18 19" fill="none" xmlns="http://www.w3.org/2000/svg">
<g clip-path="url(#clip0_616_9927)">
<path d="M14 0.740234H4C1.8 0.740234 0 2.53023 0 4.74023V14.7402C0 16.9502 1.8 18.7402 4 18.7402H14C16.21 18.7402 18 16.9502 18 14.7402V4.74023C18 2.53023 16.21 0.740234 14 0.740234ZM13.87 7.25023L7.96 13.6002C7.78 13.7902 7.5 13.7902 7.32 13.6002L4.14 10.1802C3.96 9.99023 3.96 9.69023 4.14 9.50023L4.78 8.82023C4.96 8.63023 5.25 8.63023 5.42 8.82023L7.64 11.2102L12.59 5.88023C12.76 5.69023 13.05 5.69023 13.23 5.88023L13.87 6.57023C14.05 6.75023 14.05 7.06023 13.87 7.25023Z" fill="#470CED"/>
</g>
<defs>
<clipPath id="clip0_616_9927">
<rect width="18" height="18" fill="white" transform="translate(0 0.740234)"/>
</clipPath>
</defs>
</svg>
