<?xml version="1.0" encoding="UTF-8"?>
<svg id="Layer_2" data-name="Layer 2" xmlns="http://www.w3.org/2000/svg" viewBox="0 0 16 11.72">
  <defs>
    <style>
      .cls-1 {
        fill: #e2e2e2;
      }

      .cls-2 {
        fill: #fff;
      }
    </style>
  </defs>
  <g id="Layer_1-2" data-name="Layer 1">
    <g>
      <path class="cls-2" d="M15.12,1.74L6,10.85c-.28.25-.67.25-.91.02L.87,6.64c-.12-.12-.18-.27-.18-.44,0-.16.07-.31.18-.44.12-.12.27-.19.44-.19.16,0,.31.07.44.19l3.8,3.79L14.25.87c.24-.24.62-.24.87,0,.25.25.25.62,0,.88Z"/>
      <path class="cls-1" d="M15.61.39c-.52-.52-1.33-.52-1.84,0L5.55,8.58l-3.33-3.3c-.5-.5-1.34-.5-1.83,0-.25.24-.39.58-.39.92s.14.67.39.92l4.21,4.22c.24.24.57.38.93.38.34,0,.65-.13.94-.38L15.61,2.22c.24-.24.39-.58.39-.92s-.15-.67-.39-.92ZM15.12,1.74L6,10.85c-.28.25-.67.25-.91.02L.87,6.64c-.12-.12-.18-.27-.18-.44,0-.16.07-.31.18-.44.12-.12.27-.19.44-.19.16,0,.31.07.44.19l3.8,3.79L14.25.87c.24-.24.62-.24.87,0,.25.25.25.62,0,.88Z"/>
    </g>
  </g>
</svg>