<?xml version="1.0" encoding="UTF-8"?><svg id="Layer_2" xmlns="http://www.w3.org/2000/svg" viewBox="0 0 15.23 16.61"><defs><style>.cls-1{fill:#ff391f;}</style></defs><g id="Layer_1-2"><path class="cls-1" d="M2.07,3.46c-.19,0-.37.08-.5.22-.13.14-.2.33-.19.52l.61,10.38c.07,1.14,1.02,2.03,2.16,2.03h6.92c1.14,0,2.09-.9,2.16-2.03l.61-10.38c.01-.19-.06-.38-.19-.52-.13-.14-.31-.22-.5-.22H2.07ZM2.8,4.85h9.61l-.57,9.65c-.02.42-.36.73-.78.73h-6.92c-.42,0-.75-.31-.78-.73l-.57-9.65Z"/><path class="cls-1" d="M.69,3.46C.31,3.47,0,3.77,0,4.15c0,.18.07.36.2.49.13.13.31.2.49.2h13.85c.18,0,.36-.07.49-.2.13-.13.2-.31.2-.49,0-.38-.31-.69-.69-.69H.69Z"/><path class="cls-1" d="M4.84,0C3.7,0,2.77.94,2.77,2.08v2.08c0,.38.31.69.69.69.18,0,.36-.07.49-.2.13-.13.2-.31.21-.49v-2.08c0-.39.3-.69.69-.69h5.54c.39,0,.69.3.69.69v2.08c0,.18.07.36.2.49.13.13.31.2.49.2.38,0,.69-.31.69-.69v-2.08c0-1.14-.94-2.08-2.08-2.08h-5.54Z"/><path class="cls-1" d="M5.88,6.92c-.38,0-.69.31-.69.69v4.85c0,.38.31.69.69.69.18,0,.36-.07.49-.2.13-.13.2-.31.21-.49v-4.85c0-.18-.07-.36-.21-.49-.13-.13-.31-.2-.49-.2h0Z"/><path class="cls-1" d="M9.35,6.92c-.18,0-.36.07-.49.2-.13.13-.2.31-.2.49v4.85c0,.18.07.36.2.49.13.13.31.2.49.2.38,0,.69-.31.69-.69v-4.85c0-.38-.31-.69-.69-.69h0Z"/></g></svg>