<?xml version="1.0" encoding="UTF-8"?>
<svg id="Layer_2" data-name="Layer 2" xmlns="http://www.w3.org/2000/svg" viewBox="0 0 16 16">
  <defs>
    <style>
      .cls-1 {
        fill: #ff391f;
      }
    </style>
  </defs>
  <g id="Layer_1-2" data-name="Layer 1">
    <g>
      <path class="cls-1" d="M11.77,8.93l1.1,1.1h.3c.12,0,.23.03.35.07.11.04.22.12.3.2.09.09.15.19.21.31.04.12.06.23.06.36v.28l1.11,1.1v-1.38c0-.54-.22-1.06-.59-1.44-.38-.38-.9-.59-1.43-.59h-1.39Z"/>
      <path class="cls-1" d="M10.09,3.02c.18-.16.41-.26.66-.26s.48.1.65.26l1.56,1.56c.09.09.15.19.21.31.05.11.06.23.06.35,0,.13-.02.24-.06.35-.05.12-.12.22-.21.31l-2.1,2.11.76.76,2.12-2.12c.19-.19.34-.41.45-.66.1-.24.15-.51.15-.77s-.05-.53-.15-.78c-.11-.24-.26-.47-.45-.66l-1.56-1.56c-.39-.37-.9-.57-1.43-.57s-1.05.21-1.44.57l-2.12,2.12.79.79,2.11-2.11Z"/>
      <path class="cls-1" d="M5.05,1.92c.24,0,.48.1.65.27.18.18.28.41.28.66v.29l1.12,1.12v-1.41c0-.27-.05-.53-.15-.78-.11-.25-.26-.47-.45-.66s-.41-.34-.66-.44c-.25-.1-.51-.15-.78-.15h-1.39l1.11,1.1h.29Z"/>
      <path class="cls-1" d="M4.32,11.14h-.74c-.14,0-.29.06-.4.16-.1.11-.16.24-.16.4,0,.14.06.29.16.39.11.11.25.16.4.16h.74c.14,0,.29-.06.39-.16.11-.11.16-.24.16-.39,0-.15-.05-.29-.16-.4-.1-.1-.24-.16-.39-.16Z"/>
      <path class="cls-1" d="M15.79,14.78L1.22.21C.93-.07.49-.07.21.21c-.14.14-.21.32-.21.5s.06.38.21.51l.75.75.04.04c-.12.25-.2.53-.2.82v9.22c0,.83.33,1.63.93,2.21.58.58,1.37.92,2.21.92h9.22c.29,0,.57-.07.83-.19l.04.04.75.75c.28.29.73.29,1.01,0,.28-.28.28-.73,0-1.01ZM8.93,9.93l-1.84,1.84v-3.68l1.84,1.83h0ZM5.38,13.49c-.38.38-.89.59-1.43.59s-1.05-.22-1.44-.59c-.38-.38-.59-.9-.59-1.43V2.93l3.96,3.96.1.1v5.07c0,.53-.22,1.05-.6,1.43ZM6.64,13.62c.22-.13.43-.29.62-.46l2.45-2.45,3.37,3.37h-6.77c.13-.14.23-.3.33-.46Z"/>
    </g>
  </g>
</svg>