<svg width="64" height="64" viewBox="0 0 64 64" fill="none" xmlns="http://www.w3.org/2000/svg">
<path fill-rule="evenodd" clip-rule="evenodd" d="M50.0536 16.9867C50.8932 16.1471 50.8932 14.7858 50.0536 13.9461C49.214 13.1065 47.8527 13.1065 47.013 13.9461L32 28.9592L16.9869 13.9461C16.1473 13.1065 14.786 13.1065 13.9464 13.9461C13.1067 14.7858 13.1067 16.1471 13.9464 16.9867L28.9594 31.9997L13.9464 47.0128C13.1067 47.8524 13.1067 49.2137 13.9464 50.0534C14.786 50.893 16.1473 50.893 16.9869 50.0534L32 35.0403L47.013 50.0534C47.8527 50.893 49.214 50.893 50.0536 50.0534C50.8932 49.2137 50.8932 47.8524 50.0536 47.0128L35.0405 31.9997L50.0536 16.9867Z" fill="#18181B"/>
</svg>
