<svg width="32" height="32" viewBox="0 0 32 32" fill="none" xmlns="http://www.w3.org/2000/svg">
<path fill-rule="evenodd" clip-rule="evenodd" d="M25.0269 8.49334C25.4467 8.07353 25.4467 7.39288 25.0269 6.97306C24.6071 6.55325 23.9265 6.55325 23.5066 6.97306L16.0001 14.4796L8.49359 6.97306C8.07377 6.55325 7.39312 6.55325 6.97331 6.97306C6.55349 7.39288 6.55349 8.07353 6.97331 8.49334L14.4798 15.9999L6.97331 23.5064C6.55349 23.9262 6.55349 24.6069 6.97331 25.0267C7.39312 25.4465 8.07377 25.4465 8.49359 25.0267L16.0001 17.5201L23.5066 25.0267C23.9265 25.4465 24.6071 25.4465 25.0269 25.0267C25.4467 24.6069 25.4467 23.9262 25.0269 23.5064L17.5204 15.9999L25.0269 8.49334Z" fill="#18181B"/>
</svg>
