<?xml version="1.0" encoding="UTF-8"?>
<svg id="Layer_2" xmlns="http://www.w3.org/2000/svg" version="1.1" viewBox="0 0 19.9 19.9">
  <!-- Generator: Adobe Illustrator 29.1.0, SVG Export Plug-In . SVG Version: 2.1.0 Build 142)  -->
  <defs>
    <style>
      .st0 {
        fill: #01bb87;
      }
    </style>
  </defs>
  <g id="Layer_1-2">
    <path class="st0" d="M9.9,0c5.5,0,9.9,4.4,9.9,9.9s-4.4,9.9-9.9,9.9S0,15.4,0,9.9,4.4,0,9.9,0ZM8.7,11.9l-2.2-2.2c-.3-.3-.9-.3-1.2,0s-.3.9,0,1.2l2.8,2.8c.3.3.9.3,1.2,0h0l5.8-5.8c.3-.3.3-.9,0-1.2-.3-.3-.9-.3-1.2,0h0l-5.2,5.2h0Z"/>
  </g>
</svg>