<?xml version="1.0" encoding="UTF-8"?>
<svg id="Layer_1" xmlns="http://www.w3.org/2000/svg" xmlns:xlink="http://www.w3.org/1999/xlink" version="1.1" viewBox="0 0 48 49">
  <!-- Generator: Adobe Illustrator 29.3.1, SVG Export Plug-In . SVG Version: 2.1.0 Build 151)  -->
  <defs>
    <style>
      .st0 {
        fill: none;
      }

      .st1 {
        fill: url(#linear-gradient);
      }

      .st2 {
        opacity: .3;
      }

      .st3 {
        clip-path: url(#clippath);
      }

      .st4 {
        fill: #6c92af;
      }
    </style>
    <clipPath id="clippath">
      <rect class="st0" y=".5" width="48" height="48"/>
    </clipPath>
    <linearGradient id="linear-gradient" x1="24" y1="49.8" x2="24" y2="2.8" gradientTransform="translate(0 50) scale(1 -1)" gradientUnits="userSpaceOnUse">
      <stop offset="0" stop-color="#bdcedb"/>
      <stop offset="1" stop-color="#bdcedb" stop-opacity="0"/>
    </linearGradient>
  </defs>
  <g class="st3">
    <g>
      <g class="st2">
        <path class="st1" d="M24,48.5c13.2,0,24-10.8,24-24S37.2.5,24,.5,0,11.2,0,24.5s10.8,24,24,24Z"/>
      </g>
      <path class="st4" d="M13.7,16h10.1c.3,0,.5.1.7.3l4.4,4.4c.2.2.3.5.3.8v13.4c0,.9-.8,1.7-1.7,1.7h-13.9c-.9,0-1.7-.8-1.7-1.7v-17.2c0-.9.8-1.7,1.7-1.7ZM20.5,12.5h10.1c.3,0,.5.1.7.3l4.4,4.4c.2.2.3.5.3.7v13.4c0,.9-.8,1.7-1.7,1.7h-3.9c-.1,0-.2,0-.2-.2v-1c0-.1,0-.2.2-.2h3.9c.2,0,.3-.1.3-.3v-13.1h-2.8c-.8,0-1.5-.7-1.5-1.5v-2.8h-9.9c-.1,0-.3.1-.3.3v.9c0,.1,0,.2-.2.2h-1c-.1,0-.2,0-.2-.2v-.9c0-.9.8-1.7,1.7-1.7h0ZM30.2,27.4h1.9c.2,0,.3.1.3.3v.6c0,.2-.1.3-.3.3h-1.9v-1.2ZM30.2,24.9h1.9c.2,0,.3.1.3.3v.6c0,.2-.1.3-.3.3h-1.9v-1.2ZM15.9,28.4h9.5c.2,0,.3.1.3.3v.6c0,.2-.1.3-.3.3h-9.5c-.2,0-.3-.1-.3-.3v-.6c0-.2.1-.3.3-.3ZM15.9,30.9h9.5c.2,0,.3.1.3.3v.6c0,.2-.1.3-.3.3h-9.5c-.2,0-.3-.1-.3-.3v-.6c0-.2.1-.3.3-.3ZM18.7,25.8h3.9c.2,0,.3.1.3.3v.6c0,.2-.1.3-.3.3h-3.9c-.2,0-.3-.1-.3-.3v-.6c0-.2.1-.3.3-.3ZM27.8,21.7h-2.8c-.8,0-1.5-.7-1.5-1.5v-2.8h-9.9c-.1,0-.3.1-.3.3v17.2c0,.2.1.3.3.3h13.9c.1,0,.3-.1.3-.3v-13.2h0Z"/>
    </g>
  </g>
</svg>