<?xml version="1.0" encoding="UTF-8"?>
<svg id="Layer_1" xmlns="http://www.w3.org/2000/svg" xmlns:xlink="http://www.w3.org/1999/xlink" version="1.1" viewBox="0 0 49 49">
  <!-- Generator: Adobe Illustrator 29.3.1, SVG Export Plug-In . SVG Version: 2.1.0 Build 151)  -->
  <defs>
    <style>
      .st0 {
        fill: none;
      }

      .st1 {
        fill: url(#linear-gradient);
      }

      .st2 {
        opacity: .3;
      }

      .st3 {
        clip-path: url(#clippath);
      }

      .st4 {
        fill: #6c92af;
      }
    </style>
    <clipPath id="clippath">
      <rect class="st0" x=".5" y=".5" width="48" height="48"/>
    </clipPath>
    <linearGradient id="linear-gradient" x1="24.5" y1="49.8" x2="24.5" y2="2.8" gradientTransform="translate(0 50) scale(1 -1)" gradientUnits="userSpaceOnUse">
      <stop offset="0" stop-color="#bdcedb"/>
      <stop offset="1" stop-color="#bdcedb" stop-opacity="0"/>
    </linearGradient>
  </defs>
  <g class="st3">
    <g>
      <g class="st2">
        <path class="st1" d="M24.5,48.5c13.2,0,24-10.8,24-24S37.8.5,24.5.5.5,11.2.5,24.5s10.8,24,24,24Z"/>
      </g>
      <path class="st4" d="M36.2,17.2l-4.4-4.4c-.2-.2-.5-.3-.7-.3h-10.1c-.9,0-1.7.8-1.7,1.7v.8c0,.1,0,.2.2.2h1c.1,0,.2,0,.2-.2v-.8c0-.2.1-.3.3-.3h9.9v2.8c0,.8.7,1.5,1.5,1.5h2.8v13.1c0,.1-.1.3-.3.3h-3.9c-.1,0-.2,0-.2.2v1c0,0,0,.2.2.2h3.9c.9,0,1.7-.8,1.7-1.7v-13.4c0-.3-.1-.5-.3-.7h0Z"/>
      <path class="st4" d="M25,16.3c-.2-.2-.5-.3-.7-.3h-10.1c-.9,0-1.7.8-1.7,1.7v17.2c0,.9.8,1.7,1.7,1.7h13.9c.9,0,1.7-.8,1.7-1.7v-13.4c0-.3-.1-.5-.3-.8l-4.4-4.4ZM28.3,34.8c0,.1-.1.3-.3.3h-13.9c-.2,0-.3-.1-.3-.3v-17.2c0-.1.1-.3.3-.3h9.9v2.8c0,.8.7,1.5,1.5,1.5h2.8v13.2h0Z"/>
      <path class="st4" d="M23.4,26.9l-.9.9c-.2.1-.4.1-.5,0l-2.2-3c-.1-.2-.4-.2-.6,0l-3.6,5.8c-.1.2,0,.5.3.5h10.3c.3,0,.4-.3.3-.5l-2.5-3.6c-.1-.2-.4-.2-.5,0Z"/>
      <path class="st4" d="M24.4,25.5c.7,0,1.3-.6,1.3-1.3s-.6-1.3-1.3-1.3-1.3.6-1.3,1.3.6,1.3,1.3,1.3Z"/>
    </g>
  </g>
</svg>