<?xml version="1.0" encoding="UTF-8"?>
<svg id="Layer_2" data-name="Layer 2" xmlns="http://www.w3.org/2000/svg" xmlns:xlink="http://www.w3.org/1999/xlink" viewBox="0 0 48 48">
  <defs>
    <style>
      .cls-1 {
        fill: url(#linear-gradient);
      }

      .cls-2 {
        fill: #470ced;
      }

      .cls-3 {
        opacity: .1;
      }
    </style>
    <linearGradient id="linear-gradient" x1="24" y1="-.34" x2="24" y2="46.69" gradientUnits="userSpaceOnUse">
      <stop offset="0" stop-color="#470ced"/>
      <stop offset="1" stop-color="#470ced" stop-opacity="0"/>
    </linearGradient>
  </defs>
  <g id="Layer_1-2" data-name="Layer 1">
    <g>
      <g class="cls-3">
        <path class="cls-1" d="M24,48c13.25,0,24-10.75,24-24S37.25,0,24,0,0,10.75,0,24s10.75,24,24,24Z"/>
      </g>
      <g>
        <path class="cls-2" d="M35.69,16.73l-4.42-4.42c-.21-.21-.45-.31-.74-.31h-10.08c-.93,0-1.68.75-1.68,1.68v.85c0,.1.09.19.19.19h1.03c.11,0,.19-.08.19-.19v-.85c0-.15.13-.28.28-.28h9.87v2.81c0,.81.66,1.48,1.48,1.48h2.81v13.15c0,.15-.13.28-.28.28h-3.9c-.1,0-.19.09-.19.19v1.03c0,.1.08.19.19.19h3.9c.93,0,1.68-.75,1.68-1.68v-13.36c0-.29-.1-.54-.31-.74Z"/>
        <path class="cls-2" d="M24.5,15.8c-.21-.21-.45-.31-.74-.31h-10.08c-.93,0-1.68.75-1.68,1.68v17.16c0,.92.76,1.68,1.68,1.68h13.87c.93,0,1.68-.75,1.68-1.68v-13.36c0-.29-.1-.54-.31-.75l-4.42-4.42ZM27.83,34.32c0,.15-.13.28-.28.28h-13.87c-.16,0-.28-.12-.28-.28v-17.16c0-.15.13-.28.28-.28h9.87v2.81c0,.81.66,1.48,1.48,1.48h2.81v13.15Z"/>
        <path class="cls-2" d="M22.93,26.41l-.9.88c-.15.13-.38.11-.52-.04l-2.2-2.99c-.13-.19-.44-.17-.56.02l-3.6,5.75c-.15.23,0,.52.27.52h10.29c.27,0,.44-.31.27-.54l-2.53-3.56c-.11-.17-.36-.19-.52-.04Z"/>
        <circle class="cls-2" cx="23.94" cy="23.69" r="1.26"/>
      </g>
    </g>
  </g>
</svg>