<?xml version="1.0" encoding="UTF-8"?>
<svg id="Layer_2" data-name="Layer 2" xmlns="http://www.w3.org/2000/svg" xmlns:xlink="http://www.w3.org/1999/xlink" viewBox="0 0 48 48">
  <defs>
    <style>
      .cls-1 {
        fill: url(#linear-gradient);
      }

      .cls-2 {
        fill: #470ced;
      }

      .cls-3 {
        opacity: .1;
      }
    </style>
    <linearGradient id="linear-gradient" x1="24" y1="-.34" x2="24" y2="46.69" gradientUnits="userSpaceOnUse">
      <stop offset="0" stop-color="#470ced"/>
      <stop offset="1" stop-color="#470ced" stop-opacity="0"/>
    </linearGradient>
  </defs>
  <g id="Layer_1-2" data-name="Layer 1">
    <g>
      <g class="cls-3">
        <path class="cls-1" d="M24,48c13.25,0,24-10.75,24-24S37.25,0,24,0,0,10.75,0,24s10.75,24,24,24Z"/>
      </g>
      <path class="cls-2" d="M13.68,15.49h10.08c.29,0,.54.1.74.31l4.42,4.42c.21.21.31.46.31.75v13.36c0,.93-.75,1.68-1.68,1.68h-13.87c-.92,0-1.68-.76-1.68-1.68v-17.16c0-.93.75-1.68,1.68-1.68ZM20.45,12h10.08c.29,0,.54.1.74.31l4.42,4.42c.21.21.31.46.31.74v13.36c0,.93-.75,1.68-1.68,1.68h-3.9c-.1,0-.19-.08-.19-.19v-1.03c0-.1.09-.19.19-.19h3.9c.15,0,.28-.13.28-.28v-13.15h-2.81c-.81,0-1.48-.67-1.48-1.48v-2.81h-9.87c-.15,0-.28.13-.28.28v.85c0,.11-.08.19-.19.19h-1.03c-.1,0-.19-.08-.19-.19v-.85c0-.93.75-1.68,1.68-1.68ZM30.23,26.94h1.89c.16,0,.29.13.29.29v.62c0,.16-.13.29-.29.29h-1.89v-1.2ZM30.23,24.37h1.89c.16,0,.29.13.29.29v.62c0,.16-.13.29-.29.29h-1.89v-1.2ZM15.88,27.86h9.48c.16,0,.29.13.29.29v.62c0,.16-.13.29-.29.29h-9.48c-.16,0-.29-.13-.29-.29v-.62c0-.16.13-.29.29-.29ZM15.88,30.43h9.48c.16,0,.29.13.29.29v.62c0,.16-.13.29-.29.29h-9.48c-.16,0-.29-.13-.29-.29v-.62c0-.16.13-.29.29-.29ZM18.67,25.28h3.88c.16,0,.29.13.29.29v.62c0,.16-.13.29-.29.29h-3.88c-.16,0-.29-.13-.29-.29v-.62c0-.16.13-.29.29-.29ZM27.83,21.18h-2.81c-.81,0-1.48-.67-1.48-1.48v-2.81h-9.87c-.15,0-.28.13-.28.28v17.16c0,.16.12.28.28.28h13.87c.15,0,.28-.13.28-.28v-13.15Z"/>
    </g>
  </g>
</svg>