<svg width="14" height="14" viewBox="0 0 14 14" fill="none" xmlns="http://www.w3.org/2000/svg">
<g clip-path="url(#clip0_32_2282)">
<mask id="mask0_32_2282" style="mask-type:luminance" maskUnits="userSpaceOnUse" x="0" y="0" width="14" height="14">
<path d="M14 0H0V14H14V0Z" fill="white"/>
</mask>
<g mask="url(#mask0_32_2282)">
<path d="M10.5 2.33301C10.6545 2.33327 10.8027 2.39478 10.912 2.50406C11.0212 2.61333 11.0827 2.76147 11.083 2.91601V10.158L11.738 9.50301C11.7922 9.44884 11.8565 9.40587 11.9273 9.37655C11.998 9.34723 12.0739 9.33214 12.1505 9.33214C12.2271 9.33214 12.303 9.34723 12.3737 9.37655C12.4445 9.40587 12.5088 9.44884 12.563 9.50301C12.6172 9.55718 12.6601 9.62149 12.6895 9.69226C12.7188 9.76304 12.7339 9.8389 12.7339 9.91551C12.7339 9.99212 12.7188 10.068 12.6895 10.1388C12.6601 10.2095 12.6172 10.2738 12.563 10.328L10.913 11.979C10.8033 12.0883 10.6548 12.1497 10.5 12.1497C10.3452 12.1497 10.1967 12.0883 10.087 11.979L8.437 10.333C8.3276 10.2236 8.26614 10.0752 8.26614 9.92051C8.26614 9.76579 8.3276 9.61741 8.437 9.50801C8.5464 9.39861 8.69478 9.33714 8.8495 9.33714C9.00422 9.33714 9.1526 9.39861 9.262 9.50801L9.916 10.163V2.91601C9.91626 2.76129 9.97791 2.61301 10.0874 2.5037C10.1969 2.3944 10.3453 2.33301 10.5 2.33301Z" fill="#606F95"/>
<path d="M6.417 10.5C6.56461 10.502 6.706 10.5598 6.81271 10.6618C6.91942 10.7638 6.98353 10.9025 6.99215 11.0499C7.00076 11.1972 6.95325 11.3424 6.85915 11.4562C6.76506 11.5699 6.63137 11.6438 6.485 11.663H6.417H2.333C2.18545 11.6608 2.04422 11.6028 1.93768 11.5007C1.83114 11.3986 1.76721 11.26 1.75872 11.1127C1.75023 10.9653 1.79783 10.8203 1.89193 10.7066C1.98604 10.593 2.11968 10.5191 2.266 10.5H2.334H6.417Z" fill="#C8CDD9"/>
<path d="M7.583 6.41602C7.73054 6.41823 7.87178 6.47621 7.97831 6.57831C8.08485 6.6804 8.14879 6.81905 8.15727 6.96636C8.16576 7.11368 8.11817 7.25874 8.02406 7.3724C7.92995 7.48606 7.79631 7.55987 7.65 7.57902H7.582H2.333C2.18545 7.5768 2.04422 7.51882 1.93768 7.41672C1.83114 7.31463 1.76721 7.17599 1.75872 7.02867C1.75023 6.88135 1.79783 6.73629 1.89193 6.62263C1.98604 6.50898 2.11968 6.43516 2.266 6.41602H2.334H7.583Z" fill="#C8CDD9"/>
<path d="M7.583 2.33301C7.73775 2.33301 7.88617 2.39448 7.99559 2.50391C8.10502 2.61334 8.1665 2.76175 8.1665 2.91651C8.1665 3.07126 8.10502 3.21968 7.99559 3.3291C7.88617 3.43853 7.73775 3.50001 7.583 3.50001H2.333C2.17824 3.50001 2.02983 3.43853 1.9204 3.3291C1.81097 3.21968 1.7495 3.07126 1.7495 2.91651C1.7495 2.76175 1.81097 2.61334 1.9204 2.50391C2.02983 2.39448 2.17824 2.33301 2.333 2.33301H7.583Z" fill="#C8CDD9"/>
</g>
</g>
<defs>
<clipPath id="clip0_32_2282">
<rect width="14" height="14" fill="white"/>
</clipPath>
</defs>
</svg>
