<?xml version="1.0" encoding="UTF-8"?>
<svg id="Layer_2" data-name="Layer 2" xmlns="http://www.w3.org/2000/svg" viewBox="0 0 34 34">
  <defs>
    <style>
      .cls-1 {
        fill: #758ca3;
      }
    </style>
  </defs>
  <g id="Layer_1-2" data-name="Layer 1">
    <g>
      <path class="cls-1" d="M14.18,15.93c-.85,0-1.53.77-1.53,1.71s.69,1.71,1.53,1.71,1.53-.77,1.53-1.71c.01-.94-.67-1.71-1.53-1.71Z"/>
      <path class="cls-1" d="M19.83,15.93c-.85,0-1.53.77-1.53,1.71s.69,1.71,1.53,1.71,1.53-.77,1.53-1.71c.01-.94-.67-1.71-1.53-1.71Z"/>
      <path class="cls-1" d="M17,0C7.61,0,0,7.61,0,17s7.61,17,17,17,17-7.61,17-17S26.39,0,17,0ZM25.43,21.28s0,.03-.02.04c-1.28.95-2.72,1.68-4.25,2.15-.02,0-.05,0-.06-.02-.32-.45-.61-.92-.87-1.41,0,0,0,0,0,0-.01-.03,0-.06.03-.07.46-.17.9-.38,1.33-.63,0,0,.01,0,.02-.01.02-.02.01-.06-.01-.08-.09-.07-.18-.14-.27-.21-.02-.01-.04-.02-.06,0-2.75,1.27-5.76,1.27-8.54,0-.02,0-.04,0-.05,0-.08.07-.17.14-.26.21,0,0-.01,0-.01.02-.02.03,0,.06.02.07.42.25.87.46,1.33.63,0,0,0,0,0,0,.03.01.04.05.02.07-.25.49-.54.97-.87,1.41-.01.02-.04.03-.06.02-1.53-.47-2.96-1.2-4.24-2.15-.01,0-.02-.02-.02-.04-.3-3.17.31-6.38,2.51-9.68,0,0,.01-.02.02-.02,1.1-.51,2.26-.87,3.46-1.07.02,0,.04,0,.06.03.16.29.31.58.44.89,1.29-.2,2.6-.2,3.89,0,.13-.3.27-.6.43-.89.01-.02.03-.03.06-.03,1.19.21,2.36.57,3.46,1.07,0,0,.02.01.02.02,1.92,2.82,2.87,6.01,2.51,9.68Z"/>
    </g>
  </g>
</svg>