<?xml version="1.0" encoding="UTF-8"?>
<svg id="Layer_2" xmlns="http://www.w3.org/2000/svg" version="1.1" viewBox="0 0 16 16">
  <!-- Generator: Adobe Illustrator 29.3.1, SVG Export Plug-In . SVG Version: 2.1.0 Build 151)  -->
  <defs>
    <style>
      .st0 {
        fill: none;
      }

      .st1 {
        fill: #fff;
        fill-rule: evenodd;
      }
    </style>
  </defs>
  <g id="Layer_1-2">
    <g>
      <g>
        <path class="st1" d="M7.3,11.5c.2.2.5.3.7.3s.5-.1.7-.3l4.2-4.2c.4-.4.4-1.1,0-1.5s-1.1-.4-1.5,0l-2.4,2.4V1c0-.6-.5-1-1-1s-1,.5-1,1v7.2l-2.4-2.4c-.4-.4-1.1-.4-1.5,0-.4.4-.4,1.1,0,1.5,0,0,4.2,4.2,4.2,4.2Z"/>
        <path class="st1" d="M13.6,13.9H2.4c-.6,0-1,.5-1,1s.5,1,1,1h11.1c.6,0,1-.5,1-1s-.5-1-1-1h0Z"/>
      </g>
      <rect class="st0" width="16" height="16"/>
    </g>
  </g>
</svg>