<?xml version="1.0" encoding="UTF-8"?>
<svg id="Layer_2" data-name="Layer 2" xmlns="http://www.w3.org/2000/svg" viewBox="0 0 28.63 28.88">
  <defs>
    <style>
      .cls-1, .cls-2 {
        fill: #470ced;
      }

      .cls-2 {
        opacity: .1;
      }
    </style>
  </defs>
  <g id="Layer_1-2" data-name="Layer 1">
    <g>
      <path class="cls-2" d="M27.3,0H1.31C.58,0,0,.58,0,1.31v26.27c0,.73.58,1.31,1.31,1.31h26.02c.73,0,1.31-.58,1.31-1.31V1.31c-.03-.73-.61-1.31-1.34-1.31ZM26.02,2.58v18.07H2.58V2.58h23.44Z"/>
      <g>
        <path class="cls-1" d="M6.1,18.07h16.31c.43,0,.7-.49.43-.85l-4.01-5.65c-.18-.27-.58-.3-.82-.06l-1.43,1.4c-.24.21-.61.18-.82-.06l-3.49-4.74c-.21-.3-.7-.27-.88.03l-5.71,9.11c-.24.36,0,.82.43.82Z"/>
        <circle class="cls-1" cx="19.62" cy="7.2" r="2"/>
      </g>
    </g>
  </g>
</svg>