<svg width="60" height="49" viewBox="0 0 60 49" fill="none" xmlns="http://www.w3.org/2000/svg">
<g clip-path="url(#clip0_540_9572)">
<g opacity="0.4">
<path d="M14.8336 38.4273H6.68126C4.83363 38.4273 3.34501 36.9632 3.34501 35.1652V7.41585C3.34501 5.60927 4.84238 4.15373 6.68126 4.15373H23.8091C23.8441 3.47734 23.2837 2.80094 23.345 2.13311C23.345 1.71357 16.3573 1.3026 16.366 0.89162H6.68126C2.99475 0.883058 0 3.81125 0 7.41585V35.1652C0 38.7698 2.99475 41.698 6.68126 41.698H20.7793C20.7793 41.1928 21.1909 40.6791 21.2084 40.1825C21.2084 39.8743 19.1068 39.5575 19.1156 39.2407C19.0455 38.9753 14.8949 38.7099 14.8336 38.4359V38.4273Z" fill="#470CED"/>
</g>
<g opacity="0.6">
<path d="M14.8336 38.4273H12.4956C10.648 38.4273 9.15934 36.9632 9.15934 35.1652V7.41585C9.15934 5.60927 10.6567 4.15373 12.4956 4.15373H13.9054C13.9404 3.47734 16.6987 2.80094 16.76 2.13311C16.76 1.71357 22.1278 1.3026 22.1453 0.89162H12.4956C8.80908 0.883058 5.81433 3.81125 5.81433 7.41585V35.1652C5.81433 38.7698 8.80908 41.698 12.4956 41.698H19.9912C19.9912 41.1928 15.0087 40.6791 15.0175 40.1825C15.0175 39.8743 15.0262 39.5575 15.035 39.2407C14.9649 38.9753 14.8949 38.7099 14.8248 38.4359L14.8336 38.4273Z" fill="#470CED"/>
</g>
<path d="M52.9247 7.4156C52.9247 3.81101 49.9299 0.882812 46.2434 0.882812H17.8634C14.1769 0.882812 11.1821 3.81101 11.1821 7.4156V35.165C11.1821 38.7696 14.1769 41.6978 17.8634 41.6978H31.9877C31.655 40.6532 31.4186 39.5573 31.3047 38.4356H17.8634C16.0158 38.4356 14.5271 36.9715 14.5271 35.1735V7.4156C14.5271 5.60902 16.0245 4.15349 17.8634 4.15349H46.2434C48.0911 4.15349 49.5797 5.61759 49.5797 7.4156V20.5582C50.7355 20.6695 51.8476 20.8922 52.9159 21.2261V7.4156H52.9247Z" fill="#470CED"/>
<path d="M41.7426 21.6198C39.9475 18.6231 35.5604 18.3491 33.4063 21.1746L29.4396 26.3803L29.1331 26.1234C26.7426 24.1285 23.0823 24.7535 21.5237 27.4163L18.9054 31.8942C18.6077 32.3993 18.6165 33.0244 18.9054 33.5209C19.2032 34.0261 19.7548 34.3343 20.3503 34.3343H31.3923C31.5674 33.2042 31.8564 32.1082 32.2592 31.0722H23.2312L24.4221 29.0345C24.9387 28.144 26.1646 27.9385 26.9615 28.5978L28.6252 29.9934C28.9755 30.2845 29.4396 30.4215 29.8949 30.3787C30.3503 30.3273 30.7706 30.0962 31.0508 29.728L36.0858 23.1267C36.7688 22.2363 38.1174 22.2705 38.7653 23.1267C39.6935 22.5274 40.6918 22.0222 41.7426 21.6112V21.6198Z" fill="#470CED"/>
<path fill-rule="evenodd" clip-rule="evenodd" d="M26.2171 9.86426C23.4501 9.86426 21.2084 12.0561 21.2084 14.7617C21.2084 17.4673 23.4501 19.6592 26.2171 19.6592C28.9842 19.6592 31.2259 17.4587 31.2259 14.7617C31.2259 12.0647 28.9755 9.86426 26.2171 9.86426ZM26.2171 16.3885C25.2889 16.3885 24.5446 15.6607 24.5446 14.7617C24.5446 13.8627 25.2889 13.1264 26.2171 13.1264C27.1453 13.1264 27.8809 13.8541 27.8809 14.7617C27.8809 15.6693 27.1366 16.3885 26.2171 16.3885Z" fill="#470CED"/>
<path fill-rule="evenodd" clip-rule="evenodd" d="M47.9159 24.9849C41.2434 24.9849 35.8406 30.2762 35.8406 36.7918C35.8406 43.3075 41.2521 48.6074 47.9159 48.6074C54.5796 48.6074 59.9999 43.3161 59.9999 36.7918C59.9999 30.2676 54.5884 24.9849 47.9159 24.9849ZM52.7407 37.2627C52.1365 37.8193 51.1908 37.8021 50.6129 37.2199L49.4308 36.0213V41.2184C49.4308 42.0403 48.7565 42.6996 47.9159 42.6996C47.0753 42.6996 46.4098 42.0403 46.4098 41.2184V36.0213L45.2276 37.2199C44.6497 37.8021 43.6952 37.8193 43.091 37.2627C42.4956 36.6891 42.4693 35.7644 43.0472 35.1736L46.8213 31.3379C47.1103 31.0553 47.5043 30.8926 47.9071 30.8926C48.3099 30.8926 48.7127 31.0553 49.0017 31.3379L52.767 35.1736C53.345 35.7644 53.3274 36.6891 52.7232 37.2627H52.7407Z" fill="#470CED"/>
</g>
<defs>
<clipPath id="clip0_540_9572">
<rect width="60" height="47.7245" fill="white" transform="translate(0 0.882812)"/>
</clipPath>
</defs>
</svg>
