<svg width="15" height="15" viewBox="0 0 15 15" fill="none" xmlns="http://www.w3.org/2000/svg">
<path fill-rule="evenodd" clip-rule="evenodd" d="M4.93185 5.43185C4.75611 5.60759 4.75611 5.89251 4.93185 6.06825C5.10759 6.24398 5.39251 6.24398 5.56825 6.06825L7.50005 4.13644L9.43185 6.06825C9.60759 6.24398 9.89251 6.24398 10.0682 6.06825C10.244 5.89251 10.244 5.60759 10.0682 5.43185L7.81825 3.18185C7.73386 3.09746 7.6194 3.05005 7.50005 3.05005C7.3807 3.05005 7.26624 3.09746 7.18185 3.18185L4.93185 5.43185ZM10.0682 9.56825C10.244 9.39251 10.244 9.10759 10.0682 8.93185C9.89251 8.75612 9.60759 8.75612 9.43185 8.93185L7.50005 10.8637L5.56825 8.93185C5.39251 8.75612 5.10759 8.75612 4.93185 8.93185C4.75612 9.10759 4.75612 9.39251 4.93185 9.56825L7.18185 11.8182C7.35759 11.994 7.64251 11.994 7.81825 11.8182L10.0682 9.56825Z" fill="#606F95"/>
</svg>
