<?xml version="1.0" encoding="UTF-8"?><svg id="Layer_2" xmlns="http://www.w3.org/2000/svg" viewBox="0 0 28.63 25.48"><defs><style>.cls-1{fill:#ff391f;}.cls-2{fill:#fff4f3;}</style></defs><g id="Layer_1-2"><path class="cls-2" d="M14.32,2.91c.82,0,1.63.52,2.25,1.55l8.61,14.35c1.24,2.06.28,3.75-2.12,3.75H5.58c-2.4,0-3.36-1.69-2.12-3.75L12.07,4.46c.62-1.03,1.43-1.55,2.25-1.55M14.32,0c-1.89,0-3.62,1.08-4.75,2.96L.96,17.32c-1.14,1.91-1.27,3.94-.34,5.58s2.74,2.58,4.96,2.58h17.48c2.22,0,4.04-.94,4.96-2.58s.8-3.67-.34-5.58L19.07,2.96C17.93,1.08,16.21,0,14.32,0Z"/><path class="cls-1" d="M16.21,18.19c0,1.05-.85,1.89-1.89,1.89s-1.89-.85-1.89-1.89.85-1.89,1.89-1.89,1.89.85,1.89,1.89Z"/><path class="cls-1" d="M16.5,9.45c0-1.21-.98-2.19-2.19-2.19s-2.19.98-2.19,2.19c0,.29.06.57.16.82.81,2,2.02,5.01,2.02,5.01,0,0,1.22-3,2.03-5.01.1-.25.16-.53.16-.82Z"/></g></svg>