<?xml version="1.0" encoding="UTF-8"?>
<svg id="Layer_2" data-name="Layer 2" xmlns="http://www.w3.org/2000/svg" viewBox="0 0 34 34">
  <defs>
    <style>
      .cls-1 {
        fill: #758ca3;
      }
    </style>
  </defs>
  <g id="Layer_1-2" data-name="Layer 1">
    <path class="cls-1" d="M34,16.89c-.04-3.26-1-6.44-2.78-9.17s-4.29-4.89-7.24-6.22C21.02.17,17.75-.29,14.54.18c-3.21.47-6.21,1.86-8.66,3.99C3.43,6.3,1.64,9.09.71,12.22c-.93,3.12-.95,6.45-.06,9.58.89,3.13,2.65,5.95,5.08,8.11,2.43,2.16,5.41,3.58,8.61,4.09v-12.12h-4.25v-4.98h4.25v-3.78c-.1-.88,0-1.77.28-2.61.28-.84.74-1.61,1.35-2.25.61-.64,1.35-1.14,2.17-1.46.82-.32,1.7-.46,2.58-.4,1.27.02,2.55.13,3.8.34v4.28h-2.13c-.37-.05-.74,0-1.09.11-.35.12-.67.31-.94.57-.27.26-.47.57-.6.92-.13.35-.18.72-.14,1.09v3.23h4.72l-.77,4.98h-3.93v11.97c4.02-.64,7.67-2.71,10.3-5.82,2.63-3.12,4.07-7.08,4.04-11.17Z"/>
  </g>
</svg>