<svg width="16" height="17" viewBox="0 0 16 17" fill="none" xmlns="http://www.w3.org/2000/svg">
<g clip-path="url(#clip0_798_10852)">
<path d="M8 0.5C3.58 0.5 0 4.08 0 8.5C0 12.92 3.58 16.5 8 16.5C12.42 16.5 16 12.92 16 8.5C16 4.08 12.42 0.5 8 0.5ZM11.62 6.65L7.22 11.37C7.09 11.51 6.88 11.51 6.74 11.37L4.37 8.83C4.24 8.69 4.24 8.47 4.37 8.32L4.85 7.81C4.98 7.67 5.2 7.67 5.33 7.81L6.98 9.59L10.66 5.62C10.79 5.48 11 5.48 11.14 5.62L11.62 6.13C11.75 6.26 11.75 6.49 11.62 6.64V6.65Z" fill="#470CED"/>
</g>
<defs>
<clipPath id="clip0_798_10852">
<rect width="16" height="16" fill="white" transform="translate(0 0.5)"/>
</clipPath>
</defs>
</svg>
