<svg width="56" height="56" viewBox="0 0 56 56" fill="none" xmlns="http://www.w3.org/2000/svg">
<g clip-path="url(#clip0_706_9704)">
<g clip-path="url(#clip1_706_9704)">
<path d="M1.73596 12.706V32.88C1.85943 37.0016 3.55204 40.9205 6.46796 43.836C8.81488 46.5216 11.5888 48.8015 14.678 50.584C16.394 51.678 18.66 52.958 21.39 54.384C23.4301 55.4387 25.6933 55.9891 27.99 55.9891C30.2866 55.9891 32.5498 55.4387 34.59 54.384C37.338 52.948 39.59 51.66 41.31 50.584C44.4948 48.7322 47.3486 46.3624 49.754 43.572C52.5469 40.6929 54.1565 36.8697 54.264 32.86V12.688C54.2593 10.7048 53.6443 8.77101 52.5025 7.14941C51.3607 5.52782 49.7475 4.29694 47.882 3.62396C41.5034 1.32485 34.7875 0.100247 28.008 0C21.2277 0.100112 14.5114 1.32749 8.13396 3.63196C6.26711 4.30418 4.6528 5.53547 3.51082 7.15808C2.36883 8.78069 1.75468 10.7158 1.75196 12.7L1.73596 12.706ZM31.49 7.16595C36.2716 7.58662 40.9797 8.61702 45.5 10.232C46.0081 10.417 46.4469 10.7538 46.7571 11.1967C47.0673 11.6396 47.2338 12.1673 47.234 12.708V32.89C47.0702 35.3529 45.9704 37.66 44.16 39.338C42.2591 41.4735 40.0215 43.2833 37.536 44.696C35.988 45.684 33.948 46.84 31.48 48.126V7.16595H31.49ZM8.74396 12.706C8.74396 12.1666 8.90919 11.6401 9.21741 11.1974C9.52564 10.7548 9.96207 10.4171 10.468 10.23C14.9909 8.611 19.7026 7.57796 24.488 7.15601V48.114C22.028 46.818 19.982 45.662 18.432 44.674C15.8393 43.1896 13.516 41.278 11.56 39.02C9.85927 37.4117 8.84902 35.2062 8.74196 32.868L8.74396 12.706Z" fill="white"/>
</g>
</g>
<defs>
<clipPath id="clip0_706_9704">
<rect width="56" height="56" fill="white"/>
</clipPath>
<clipPath id="clip1_706_9704">
<rect width="56" height="56" fill="white"/>
</clipPath>
</defs>
</svg>
