<?xml version="1.0" encoding="UTF-8"?>
<svg id="Layer_1" xmlns="http://www.w3.org/2000/svg" version="1.1" viewBox="0 0 17 16">
  <!-- Generator: Adobe Illustrator 29.3.1, SVG Export Plug-In . SVG Version: 2.1.0 Build 151)  -->
  <defs>
    <style>
      .st0 {
        fill: #470ced;
        fill-rule: evenodd;
      }
    </style>
  </defs>
  <path class="st0" d="M16.5,8C16.5,3.6,12.9,0,8.5,0S.5,3.6.5,8s3.6,8,8,8,8-3.6,8-8ZM8.5,2.1c3.2,0,5.9,2.6,5.9,5.9s-2.6,5.9-5.9,5.9-5.9-2.6-5.9-5.9,2.6-5.9,5.9-5.9ZM8.5,3.2c.6,0,1.1.5,1.1,1.1v2.7h2.1c.6,0,1.1.5,1.1,1.1s-.5,1.1-1.1,1.1h-3.2c-.6,0-1.1-.5-1.1-1.1v-3.7c0-.6.5-1.1,1.1-1.1Z"/>
</svg>