<?xml version="1.0" encoding="UTF-8"?>
<svg id="Layer_2" data-name="Layer 2" xmlns="http://www.w3.org/2000/svg" viewBox="0 0 19.86 19.86">
  <defs>
    <style>
      .cls-1 {
        fill: #470ced;
      }
    </style>
  </defs>
  <g id="Layer_1-2" data-name="Layer 1">
    <path class="cls-1" d="M9.93,0c5.48,0,9.93,4.45,9.93,9.93s-4.45,9.93-9.93,9.93S0,15.42,0,9.93,4.45,0,9.93,0ZM8.69,11.89l-2.21-2.21c-.33-.33-.87-.33-1.2,0-.33.33-.33.87,0,1.2l2.81,2.81c.33.33.87.33,1.2,0,0,0,0,0,0,0l5.82-5.82c.34-.33.34-.87.01-1.2-.33-.34-.87-.34-1.2-.01,0,0,0,0,0,0l-5.22,5.22h0Z"/>
  </g>
</svg>