<?xml version="1.0" encoding="UTF-8"?>
<svg id="Layer_2" xmlns="http://www.w3.org/2000/svg" version="1.1" viewBox="0 0 16 16">
  <!-- Generator: Adobe Illustrator 29.3.1, SVG Export Plug-In . SVG Version: 2.1.0 Build 151)  -->
  <defs>
    <style>
      .st0 {
        fill: #fff;
      }
    </style>
  </defs>
  <g id="Layer_1-2">
    <g>
      <polygon class="st0" points="4.4 8.8 7.2 8.8 7.2 11.6 8.8 11.6 8.8 8.8 11.6 8.8 11.6 7.2 8.8 7.2 8.8 4.4 7.2 4.4 7.2 7.2 4.4 7.2 4.4 8.8"/>
      <path class="st0" d="M1.4,5.1c.4.2.8,0,1.1-.3s0-.8-.3-1.1-.8,0-1.1.3c-.2.4,0,.8.3,1.1Z"/>
      <path class="st0" d="M4.8,2.5c.4-.2.5-.7.3-1.1s-.7-.5-1.1-.3-.5.7-.3,1.1.7.5,1.1.3Z"/>
      <path class="st0" d="M8,0h-.8v1.5h.8c3.6,0,6.4,2.9,6.4,6.5s-2.9,6.4-6.4,6.4S1.5,11.6,1.5,8v-.8H0v.8c0,4.4,3.6,8,8,8s8-3.6,8-8S12.4,0,8,0Z"/>
    </g>
  </g>
</svg>