<?xml version="1.0" encoding="UTF-8"?>
<svg id="Layer_2" data-name="Layer 2" xmlns="http://www.w3.org/2000/svg" viewBox="0 0 16 16">
  <defs>
    <style>
      .cls-1 {
        fill: #606f95;
      }
    </style>
  </defs>
  <g id="Layer_1-2" data-name="Layer 1">
    <g>
      <path class="cls-1" d="M2.15,1.23h7.7v4.92h4.92v7.7c0,.51-.41.92-.92.92h-4.01v1.23h3.69c1.36,0,2.46-1.1,2.46-2.46V4.41L11.59,0H2.46C1.1,0,0,1.1,0,2.46v3.69h1.23V2.15c0-.51.41-.92.92-.92Z"/>
      <path class="cls-1" d="M1.98,16h2.61c.36,0,.66-.26.7-.6.02-.19-.04-.37-.17-.51-.13-.14-.3-.22-.49-.22h-2.37l4.38-4.38c.26-.26.26-.68,0-.93s-.69-.25-.93,0L1.32,13.74v-2.33c0-.36-.26-.66-.6-.7-.02,0-.04,0-.07,0-.17,0-.32.06-.45.17-.14.13-.22.3-.22.49v2.65c0,1.09.89,1.98,1.98,1.98h0Z"/>
    </g>
  </g>
</svg>