<svg width="34" height="15" viewBox="0 0 34 15" fill="none" xmlns="http://www.w3.org/2000/svg">
<g clip-path="url(#clip0_607_9671)">
<path d="M6.52599 5.43018H5.51599V7.56018H6.52599C6.85599 7.56018 7.10599 7.47018 7.27599 7.29018C7.44599 7.11018 7.53599 6.84018 7.53599 6.50018C7.53599 6.16018 7.44599 5.89018 7.27599 5.71018C7.10599 5.53018 6.84599 5.44018 6.52599 5.44018V5.43018Z" fill="#470CED"/>
<path d="M12.1559 5.46996H11.3159V10.01H12.1659C13.3559 10.01 13.9459 9.27996 13.9459 7.82996V7.62996C13.9459 6.17996 13.3459 5.45996 12.1559 5.45996V5.46996Z" fill="#470CED"/>
<path d="M30.1659 0.890137H3.84593C2.24593 0.890137 0.955933 2.18014 0.955933 3.78014V11.6901C0.955933 13.2901 2.24593 14.5801 3.84593 14.5801H30.1659C31.7659 14.5801 33.0559 13.2901 33.0559 11.6901V3.78014C33.0559 2.18014 31.7659 0.890137 30.1659 0.890137ZM8.38593 8.08014C7.97593 8.47014 7.40593 8.66014 6.69593 8.66014H5.52593V11.1501H4.08593V4.32014H6.69593C7.40593 4.32014 7.96593 4.51014 8.38593 4.90014C8.79593 5.29014 9.00593 5.82014 9.00593 6.49014C9.00593 7.16014 8.79593 7.69014 8.38593 8.08014ZM14.6459 10.2601C14.0959 10.8501 13.3259 11.1501 12.3259 11.1501H9.84593V4.32014H12.2959C13.3159 4.32014 14.0959 4.61014 14.6459 5.20014C15.1959 5.79014 15.4659 6.63014 15.4659 7.73014C15.4659 8.83014 15.1959 9.66014 14.6459 10.2601ZM20.8059 5.47014H17.9859V7.18014H20.2359V8.32014H17.9859V11.1501H16.5059V4.32014H20.8059V5.46014V5.47014ZM29.9259 9.58014C29.9259 9.94014 29.6359 10.2301 29.2759 10.2301C28.9159 10.2301 28.6259 9.94014 28.6259 9.58014V6.55014L24.2059 10.9701C23.9559 11.2201 23.5359 11.2201 23.2859 10.9701C23.0359 10.7201 23.0359 10.3001 23.2859 10.0501L27.7059 5.63014H24.6759C24.3159 5.63014 24.0259 5.34014 24.0259 4.98014C24.0259 4.62014 24.3159 4.33014 24.6759 4.33014H29.2859C29.6459 4.33014 29.9359 4.62014 29.9359 4.98014V9.59014L29.9259 9.58014Z" fill="#470CED"/>
</g>
<defs>
<clipPath id="clip0_607_9671">
<rect width="32.1" height="13.7" fill="white" transform="translate(0.955933 0.890137)"/>
</clipPath>
</defs>
</svg>
