<svg width="21" height="18" viewBox="0 0 21 18" fill="none" xmlns="http://www.w3.org/2000/svg">
<g clip-path="url(#clip0_540_9621)">
<path d="M20.72 3.61932C20.64 3.26932 20.42 2.96932 20.1 2.80932H20.09L20.08 2.79932C19.65 2.54932 19.21 2.29932 18.78 2.05932C18.33 1.80932 17.89 1.54932 17.44 1.29932L16.67 0.859316L15.9 0.419316C15.85 0.389316 15.81 0.369316 15.76 0.339316C15.71 0.309316 15.65 0.279316 15.6 0.249316C15.3 0.0893164 15.01 0.0693164 14.82 0.0693164C14.76 0.0693164 14.7 0.0693164 14.65 0.0693164C14.61 0.0693164 14.58 0.0693164 14.54 0.0693164H12.68C12.15 0.0693164 11.54 0.449316 11.43 1.08932C11.42 1.15932 11.41 1.19932 11.4 1.23932C11.4 1.25932 11.39 1.27932 11.38 1.30932C11.35 1.36932 11.33 1.41932 11.3 1.45932C11.3 1.46932 11.28 1.49932 11.26 1.51932V1.53932C11.22 1.57932 11.18 1.62932 11.16 1.64932C11.14 1.66932 11.11 1.68932 11.09 1.70932C11.03 1.74932 10.97 1.78932 10.92 1.80932C10.92 1.80932 10.89 1.81932 10.87 1.83932C10.87 1.83932 10.83 1.85932 10.8 1.85932C10.74 1.87932 10.67 1.89932 10.61 1.90932H10.59H10.55C10.55 1.90932 10.49 1.90932 10.45 1.90932H10.4C10.34 1.90932 10.28 1.90932 10.23 1.90932C10.2 1.90932 10.17 1.90932 10.15 1.88932H10.13H10.11L10.04 1.86932C10.04 1.86932 10.02 1.86932 10.01 1.86932C9.99 1.85932 9.97 1.84932 9.94 1.83932H9.91C9.91 1.83932 9.85 1.78932 9.82 1.77932C9.79 1.75932 9.77 1.74932 9.75 1.72932V1.71932C9.75 1.71932 9.73 1.70932 9.72 1.69932L9.7 1.67932L9.68 1.65932C9.68 1.65932 9.63 1.60932 9.61 1.58932L9.57 1.54932H9.56C9.56 1.54932 9.55 1.51932 9.54 1.51932C9.54 1.51932 9.54 1.52932 9.55 1.53932V1.51932C9.5 1.45932 9.47 1.40932 9.45 1.36932C9.43 1.30932 9.41 1.26932 9.4 1.22932C9.39 1.17932 9.37 1.12932 9.37 1.06932C9.26 0.429316 8.65 0.0493164 8.12 0.0493164H7.32H6.5H6.32H6.12C6.02 0.0493164 5.91 0.0493164 5.81 0.0493164C5.46 0.0493164 5.22 0.199316 5.06 0.289316L5.02 0.309316L3.39 1.23932L1.77 2.15932L1.2 2.47932L0.680003 2.76932C0.0500034 3.13932 -0.159997 3.83932 0.130003 4.48932L0.650003 5.62932L0.740003 5.83932L1.24 6.92932L1.72 7.98932L1.83 8.23932L1.94 8.47932C2.11 8.84932 2.48 9.07932 2.77 9.14932C2.87 9.16932 2.97 9.17932 3.06 9.17932C3.3 9.17932 3.5 9.10932 3.63 9.05932L3.84 8.96932C3.84 9.36932 3.84 9.76932 3.84 10.1693V11.4993V12.8293C3.84 13.5993 3.84 14.3693 3.84 15.1493C3.84 15.2693 3.84 15.3893 3.84 15.5093C3.84 15.7693 3.84 16.0193 3.84 16.2793C3.84 16.9893 4.42 17.5593 5.12 17.5593H14.35C14.49 17.5593 14.63 17.5593 14.77 17.5593C14.91 17.5593 15.06 17.5593 15.2 17.5593C15.34 17.5593 15.49 17.5593 15.64 17.5593C16.36 17.5593 16.92 16.9793 16.92 16.2793V8.97932C16.99 9.00932 17.05 9.03932 17.12 9.05932C17.29 9.12932 17.49 9.17932 17.69 9.17932C18.18 9.17932 18.61 8.90932 18.81 8.48932C19.01 8.03932 19.22 7.58932 19.42 7.14932L20.32 5.16932L20.4 4.99932C20.47 4.84932 20.54 4.69932 20.61 4.54932C20.76 4.26932 20.8 3.93932 20.72 3.62932V3.61932ZM6.39 7.03932C6.39 6.57932 6.15 6.15932 5.76 5.93932C5.56 5.82932 5.35 5.76932 5.13 5.76932C4.94 5.76932 4.76 5.80932 4.56 5.89932L3.72 6.25932L3.61 6.00932L3.12 4.92932L2.91 4.46932C3.08 4.36932 3.25 4.27932 3.42 4.17932L5.85 2.78932L6.11 2.63932H6.77H7.18C7.61 3.41932 8.35 4.03932 9.22 4.32932C9.59 4.44932 9.97 4.50932 10.37 4.50932C11.37 4.50932 12.33 4.10932 13 3.41932C13.23 3.17932 13.42 2.91932 13.58 2.63932H14.64C15.05 2.86932 15.46 3.10932 15.87 3.33932C16.44 3.65932 17 3.98932 17.57 4.30932L17.85 4.46932L17.74 4.70932L17.03 6.26932L16.46 6.02932C16.37 5.98932 16.29 5.95932 16.2 5.91932C16.01 5.83932 15.82 5.79932 15.63 5.79932C15.41 5.79932 15.2 5.85932 15 5.96932C14.61 6.19932 14.37 6.61932 14.37 7.06932V15.0293H6.39C6.39 14.4093 6.39 13.7893 6.39 13.1693V11.8393V10.5093V9.34932V8.18932C6.39 8.06932 6.39 7.94932 6.39 7.81932C6.39 7.55932 6.39 7.30932 6.39 7.04932V7.03932Z" fill="#470CED"/>
</g>
<defs>
<clipPath id="clip0_540_9621">
<rect width="20.76" height="17.49" fill="white" transform="translate(0 0.0693359)"/>
</clipPath>
</defs>
</svg>
