<svg width="20" height="20" viewBox="0 0 20 20" fill="none" xmlns="http://www.w3.org/2000/svg">
<path d="M17.1795 11.2822H14.8308L17.9897 8.12324C18.253 7.86201 18.462 7.55124 18.6046 7.20886C18.7472 6.86648 18.8206 6.49926 18.8206 6.12837C18.8206 5.75748 18.7472 5.39026 18.6046 5.04788C18.462 4.7055 18.253 4.39474 17.9897 4.1335L15.8154 1.95914C15.2776 1.44685 14.5633 1.1611 13.8205 1.1611C13.0778 1.1611 12.3635 1.44685 11.8256 1.95914L8.74872 5.03606V2.82068C8.74874 2.44768 8.67478 2.07838 8.53112 1.73416C8.38745 1.38994 8.17694 1.07763 7.91176 0.815319C7.64658 0.553004 7.33201 0.345892 6.98625 0.205971C6.64049 0.0660494 6.27041 -0.00390122 5.89744 0.000167851H2.82051C2.07247 0.000167851 1.35506 0.297328 0.826109 0.826277C0.29716 1.35523 0 2.07263 0 2.82068V15.6412C0.00270866 16.7964 0.462826 17.9036 1.27971 18.7205C2.09659 19.5373 3.20374 19.9975 4.35897 20.0002H17.1795C17.9275 20.0002 18.6449 19.703 19.1739 19.1741C19.7028 18.6451 20 17.9277 20 17.1797V14.1027C20 13.3547 19.7028 12.6373 19.1739 12.1083C18.6449 11.5794 17.9275 11.2822 17.1795 11.2822ZM12.9128 3.07709C13.1559 2.84088 13.4815 2.70875 13.8205 2.70875C14.1595 2.70875 14.4851 2.84088 14.7282 3.07709L16.9026 5.25145C17.022 5.37054 17.1167 5.51202 17.1813 5.66777C17.2459 5.82353 17.2792 5.99051 17.2792 6.15914C17.2792 6.32778 17.2459 6.49475 17.1813 6.65051C17.1167 6.80627 17.022 6.94774 16.9026 7.06683L12.4308 11.5386L8.71795 15.2515V7.24119L12.9128 3.07709ZM1.53846 15.6412V2.82068C1.53846 2.48066 1.67353 2.15456 1.91397 1.91413C2.1544 1.6737 2.48049 1.53863 2.82051 1.53863H5.89744C6.23746 1.53863 6.56355 1.6737 6.80398 1.91413C7.04441 2.15456 7.17949 2.48066 7.17949 2.82068V15.6412C7.17949 16.3892 6.88233 17.1066 6.35338 17.6356C5.82443 18.1645 5.10702 18.4617 4.35897 18.4617C3.61093 18.4617 2.89352 18.1645 2.36457 17.6356C1.83562 17.1066 1.53846 16.3892 1.53846 15.6412ZM18.4615 17.1797C18.4615 17.5197 18.3265 17.8458 18.086 18.0862C17.8456 18.3266 17.5195 18.4617 17.1795 18.4617H7.65128C7.82329 18.2599 7.9777 18.0437 8.11282 17.8156C8.42213 17.6353 8.711 17.4221 8.97436 17.1797L13.3333 12.8104H17.1795C17.3487 12.8104 17.5163 12.8439 17.6725 12.909C17.8287 12.9741 17.9705 13.0694 18.0897 13.1895C18.2089 13.3097 18.3031 13.4522 18.3669 13.609C18.4307 13.7657 18.4629 13.9335 18.4615 14.1027V17.1797Z" fill="#470CED"/>
<path d="M5.64101 15.1284C5.63835 14.9252 5.55645 14.7311 5.41277 14.5874C5.26908 14.4437 5.07496 14.3618 4.87178 14.3591H3.84614C3.64212 14.3591 3.44647 14.4402 3.30221 14.5844C3.15795 14.7287 3.0769 14.9243 3.0769 15.1284C3.0769 15.3324 3.15795 15.528 3.30221 15.6723C3.44647 15.8165 3.64212 15.8976 3.84614 15.8976H4.87178C5.07496 15.8949 5.26908 15.813 5.41277 15.6694C5.55645 15.5257 5.63835 15.3315 5.64101 15.1284Z" fill="#470CED"/>
</svg>
