<?xml version="1.0" encoding="UTF-8"?>
<svg id="Layer_2" data-name="Layer 2" xmlns="http://www.w3.org/2000/svg" xmlns:xlink="http://www.w3.org/1999/xlink" viewBox="0 0 48 48">
  <defs>
    <style>
      .cls-1 {
        fill: url(#linear-gradient);
      }

      .cls-2 {
        fill: #470ced;
      }

      .cls-3 {
        opacity: .1;
      }
    </style>
    <linearGradient id="linear-gradient" x1="24" y1="-.34" x2="24" y2="46.69" gradientUnits="userSpaceOnUse">
      <stop offset="0" stop-color="#470ced"/>
      <stop offset="1" stop-color="#470ced" stop-opacity="0"/>
    </linearGradient>
  </defs>
  <g id="Layer_1-2" data-name="Layer 1">
    <g>
      <g class="cls-3">
        <path class="cls-1" d="M24,48c13.25,0,24-10.75,24-24S37.25,0,24,0,0,10.75,0,24s10.75,24,24,24Z"/>
      </g>
      <g>
        <path class="cls-2" d="M28.61,21.19c0-1.07-1.6-1.07-1.6,0s1.6,1.07,1.6,0Z"/>
        <path class="cls-2" d="M16.61,21.19c0-1.07-1.6-1.07-1.6,0s1.6,1.07,1.6,0Z"/>
        <path class="cls-2" d="M21.01,20.08v-.23c-.09-4.32-3.68-7.84-8-7.84-.44,0-.8.35-.8.78h0c0,.45.35.81.79.81h.05c3.51,0,6.36,2.86,6.36,6.36,0,.39.12.77.33,1.09l2.74,4.1c.36.53-.03,1.24-.66,1.24h-1.6c-.44,0-.8.36-.8.8v3.6c0,.44-.36.8-.8.8h-3.67c-.68,0-1.29.44-1.51,1.08l-.74,2.18c-.15.43.05.93.42,1.08.42.17.92-.06,1.06-.48l.77-2.26h3.67c1.32,0,2.4-1.08,2.4-2.4v-2.8h.8c1.09,0,2.05-.74,2.32-1.8.17-.65.03-1.38-.38-2l-2.74-4.11Z"/>
        <path class="cls-2" d="M35.34,24.2h0s-2.74-4.12-2.74-4.12v-.23c-.09-4.32-3.68-7.84-8-7.84-.44,0-.8.35-.8.78,0,.46.35.82.79.82h.05c3.51,0,6.36,2.86,6.36,6.36,0,.39.12.77.33,1.09l2.74,4.1c.36.53-.03,1.24-.66,1.24h-1.6c-.44,0-.8.36-.8.8v3.6c0,.44-.36.8-.8.8h-3.67c-.68,0-1.29.44-1.51,1.08l-.74,2.18c-.15.43.05.93.42,1.08.42.17.92-.06,1.06-.48l.77-2.26h3.67c1.32,0,2.4-1.08,2.4-2.4v-2.8h.8c1.09,0,2.05-.74,2.32-1.8.17-.65.03-1.38-.38-2Z"/>
      </g>
    </g>
  </g>
</svg>