<?xml version="1.0" encoding="UTF-8"?>
<svg id="Layer_1" xmlns="http://www.w3.org/2000/svg" xmlns:xlink="http://www.w3.org/1999/xlink" version="1.1" viewBox="0 0 48 49">
  <!-- Generator: Adobe Illustrator 29.3.1, SVG Export Plug-In . SVG Version: 2.1.0 Build 151)  -->
  <defs>
    <style>
      .st0 {
        fill: none;
      }

      .st1 {
        fill: url(#linear-gradient);
      }

      .st2 {
        opacity: .3;
      }

      .st3 {
        clip-path: url(#clippath);
      }

      .st4 {
        fill: #6c92af;
      }
    </style>
    <clipPath id="clippath">
      <rect class="st0" y=".5" width="48" height="48"/>
    </clipPath>
    <linearGradient id="linear-gradient" x1="24" y1="49.8" x2="24" y2="2.8" gradientTransform="translate(0 50) scale(1 -1)" gradientUnits="userSpaceOnUse">
      <stop offset="0" stop-color="#bdcedb"/>
      <stop offset="1" stop-color="#bdcedb" stop-opacity="0"/>
    </linearGradient>
  </defs>
  <g class="st3">
    <g>
      <g class="st2">
        <path class="st1" d="M24,48.5c13.2,0,24-10.8,24-24S37.2.5,24,.5,0,11.2,0,24.5s10.8,24,24,24Z"/>
      </g>
      <path class="st4" d="M28.6,21.7c0-1.1-1.6-1.1-1.6,0s1.6,1.1,1.6,0Z"/>
      <path class="st4" d="M16.6,21.7c0-1.1-1.6-1.1-1.6,0s1.6,1.1,1.6,0Z"/>
      <path class="st4" d="M21,20.6v-.2c0-4.3-3.7-7.8-8-7.8s-.8.4-.8.8.4.8.8.8h0c3.5,0,6.4,2.9,6.4,6.4s.1.8.3,1.1l2.7,4.1c.4.5,0,1.2-.7,1.2h-1.6c-.4,0-.8.4-.8.8v3.6c0,.4-.4.8-.8.8h-3.7c-.7,0-1.3.4-1.5,1.1l-.7,2.2c-.1.4,0,.9.4,1.1.4.2.9,0,1.1-.5l.8-2.3h3.7c1.3,0,2.4-1.1,2.4-2.4v-2.8h.8c1.1,0,2.1-.7,2.3-1.8.2-.6,0-1.4-.4-2l-2.7-4.1h0Z"/>
      <path class="st4" d="M35.3,24.7l-2.7-4.1v-.2c0-4.3-3.7-7.8-8-7.8s-.8.4-.8.8.4.8.8.8h0c3.5,0,6.4,2.9,6.4,6.4s.1.8.3,1.1l2.7,4.1c.4.5,0,1.2-.7,1.2h-1.6c-.4,0-.8.4-.8.8v3.6c0,.4-.4.8-.8.8h-3.7c-.7,0-1.3.4-1.5,1.1l-.7,2.2c-.1.4,0,.9.4,1.1.4.2.9,0,1.1-.5l.8-2.3h3.7c1.3,0,2.4-1.1,2.4-2.4v-2.8h.8c1.1,0,2-.7,2.3-1.8.2-.6,0-1.4-.4-2h0Z"/>
    </g>
  </g>
</svg>