<svg width="20" height="20" viewBox="0 0 20 20" fill="none" xmlns="http://www.w3.org/2000/svg">
<g clip-path="url(#clip0_23_28)">
<g clip-path="url(#clip1_23_28)">
<path d="M9.9999 5.73859e-07C12.3104 0.00258428 14.5485 0.806041 16.333 2.27352C18.1176 3.74101 19.3383 5.78176 19.7871 8.0482C20.236 10.3146 19.8853 12.6666 18.7947 14.7035C17.7041 16.7404 15.9412 18.3362 13.8061 19.2192C11.671 20.1022 9.29589 20.2177 7.0852 19.5461C4.87451 18.8745 2.965 17.4573 1.6819 15.5359C0.398805 13.6144 -0.178525 11.3076 0.0482434 9.00833C0.275011 6.70903 1.29185 4.55944 2.92558 2.92568C4.80274 1.05141 7.34724 -0.000897108 9.9999 5.73859e-07Z" fill="#F7F8FA"/>
<path d="M9.99999 0.761976C11.2145 0.760648 12.4174 0.999316 13.5394 1.46427C14.6614 1.92922 15.6805 2.61129 16.5381 3.47129L16.5851 3.51833C18.2992 5.25626 19.2563 7.60163 19.2474 10.0426C19.2386 12.4836 18.2647 14.822 16.5381 16.5475L16.4911 16.5945C14.7508 18.3211 12.396 19.2856 9.94459 19.2759C7.49321 19.2661 5.14608 18.283 3.41956 16.5428C1.69303 14.8025 0.728528 12.4477 0.738232 9.99632C0.747935 7.54494 1.73105 5.19782 3.4713 3.47129C4.32661 2.61082 5.34394 1.92836 6.46453 1.46333C7.58512 0.9983 8.78675 0.759926 9.99999 0.761976Z" fill="white"/>
<mask id="mask0_23_28" style="mask-type:luminance" maskUnits="userSpaceOnUse" x="1" y="1" width="18" height="18">
<path d="M9.99998 18.4572C14.6708 18.4572 18.4572 14.6708 18.4572 10C18.4572 5.32926 14.6708 1.54285 9.99998 1.54285C5.3292 1.54285 1.54279 5.32926 1.54279 10C1.54279 14.6708 5.3292 18.4572 9.99998 18.4572Z" fill="white"/>
</mask>
<g mask="url(#mask0_23_28)">
<path d="M7.17776 18.4572V13.302L-3.13269 18.4572H7.17776ZM-6.90503 12.8222V16.5664L0.583211 12.8222H-6.90503ZM-6.90503 3.43372V7.17784H0.583211L-6.90503 3.43372ZM12.8222 1.54285V6.69807L23.1232 1.54285H12.8127H12.8222ZM26.9049 16.5664V12.8222H19.4167L26.9049 16.5664ZM19.4167 7.17784H26.9143V3.43372L19.4167 7.17784ZM7.17776 6.69807V1.54285H-3.12328L7.17776 6.69807ZM12.8222 18.4572H23.1326L12.8222 13.302V18.4572Z" fill="#00247D"/>
<path d="M-6.90503 12.8222H0.583211L-6.90503 16.5664V18.4572L4.36496 12.8222H6.88613L-4.38386 18.4572H-3.12328L7.18716 13.302V18.4572H8.31604V11.6934H-6.90503V12.8222ZM7.17776 6.69807L-3.12328 1.54285H-6.90503L4.36496 7.17784H1.84379L-6.90503 2.80343V3.43372L0.583211 7.18725H-6.90503V8.31613H8.31604V1.55225H7.18716V6.70748L7.17776 6.69807ZM26.9049 1.54285L15.635 7.17784H13.1138L24.3838 1.54285H23.1232L12.8127 6.69807V1.54285H11.6839V8.30672H26.8955V7.17784H19.3979L26.8955 3.43372V1.54285H26.9049ZM11.6933 18.4572H12.8222V13.302L23.1326 18.4572H26.9143L15.6444 12.8222H18.1655L26.9143 17.1967V16.5664L19.4261 12.8222H26.9143V11.6934H11.6933V18.4572Z" fill="white"/>
<path d="M-6.90503 18.4572H-4.38386L6.88613 12.8222H4.36496L-6.90503 18.4572ZM26.9049 1.54285H24.3838L13.1138 7.17784H15.635L26.9049 1.54285ZM4.36496 7.17784L-6.90503 1.54285V2.80343L1.84379 7.17784H4.36496ZM12.8222 8.30672H11.6933V1.54285H8.31604V8.30672H-6.90503V11.684H8.30664V18.4478H11.6839V11.684H26.9049V8.30672H12.8222ZM15.635 12.8222L26.9049 18.4572V17.1967L18.1561 12.8222H15.635Z" fill="#CF142B"/>
</g>
</g>
</g>
<defs>
<clipPath id="clip0_23_28">
<rect width="20" height="20" fill="white"/>
</clipPath>
<clipPath id="clip1_23_28">
<rect width="20" height="20" fill="white"/>
</clipPath>
</defs>
</svg>
