<svg width="21" height="21" viewBox="0 0 21 21" fill="none" xmlns="http://www.w3.org/2000/svg">
<g clip-path="url(#clip0_540_9618)">
<path fill-rule="evenodd" clip-rule="evenodd" d="M20.76 5.19C20.76 2.32 18.44 0 15.57 0C12.7 0 10.38 2.32 10.38 5.19C10.38 8.06 12.7 10.38 15.57 10.38C18.44 10.38 20.76 8.06 20.76 5.19ZM14.88 7.27C14.88 7.65 15.19 7.96 15.57 7.96C15.95 7.96 16.26 7.65 16.26 7.27V4.83L16.8 5.39C17.06 5.67 17.5 5.67 17.78 5.41C18.06 5.14 18.06 4.71 17.8 4.43L16.07 2.63C15.94 2.49 15.76 2.42 15.57 2.42C15.38 2.42 15.2 2.5 15.07 2.63L13.34 4.43C13.07 4.71 13.08 5.14 13.36 5.41C13.64 5.67 14.07 5.67 14.34 5.39L14.88 4.83V7.27Z" fill="#470CED"/>
<path d="M9.35 5.5399H2.08C1.7 5.5399 1.39 5.8499 1.39 6.2299V15.2299C1.39 15.6099 1.7 15.9199 2.08 15.9199H16.61C16.99 15.9199 17.3 15.6099 17.3 15.2299V11.1799C17.79 11.0399 18.25 10.8399 18.68 10.5899V15.2299C18.68 16.3799 17.75 17.3099 16.6 17.3099H11.92C12.09 17.9499 12.34 18.5599 12.68 19.1199L12.84 19.3799H13.83C14.21 19.3799 14.52 19.6899 14.52 20.0699C14.52 20.4499 14.21 20.7599 13.83 20.7599H4.84C4.46 20.7599 4.15 20.4499 4.15 20.0699C4.15 19.6899 4.46 19.3799 4.84 19.3799H5.83L5.99 19.1199C6.33 18.5599 6.59 17.9399 6.75 17.3099H2.08C0.93 17.3099 0 16.3799 0 15.2299V6.2299C0 5.0799 0.93 4.1499 2.08 4.1499H9.43C9.37 4.4899 9.34 4.8299 9.34 5.1899C9.34 5.3099 9.34 5.4199 9.34 5.5399H9.35Z" fill="#470CED"/>
</g>
<defs>
<clipPath id="clip0_540_9618">
<rect width="20.76" height="20.76" fill="white"/>
</clipPath>
</defs>
</svg>
