<svg width="20" height="20" viewBox="0 0 20 20" fill="none" xmlns="http://www.w3.org/2000/svg">
<g clip-path="url(#clip0_23_26)">
<path d="M9.9999 5.73859e-07C12.3104 0.00258428 14.5485 0.806041 16.333 2.27352C18.1176 3.74101 19.3383 5.78176 19.7871 8.0482C20.236 10.3146 19.8853 12.6666 18.7947 14.7035C17.7041 16.7404 15.9412 18.3362 13.8061 19.2192C11.671 20.1022 9.29589 20.2177 7.0852 19.5461C4.87451 18.8745 2.965 17.4573 1.6819 15.5359C0.398805 13.6144 -0.178525 11.3076 0.0482434 9.00833C0.275011 6.70903 1.29185 4.55944 2.92558 2.92568C4.80274 1.05141 7.34724 -0.000897108 9.9999 5.73859e-07Z" fill="#F7F8FA"/>
<path d="M9.99999 0.761976C11.2145 0.760648 12.4174 0.999316 13.5394 1.46427C14.6614 1.92922 15.6805 2.61129 16.5381 3.47129L16.5851 3.51833C18.2992 5.25626 19.2563 7.60163 19.2474 10.0426C19.2386 12.4836 18.2647 14.822 16.5381 16.5475L16.4911 16.5945C14.7508 18.3211 12.396 19.2856 9.94459 19.2759C7.49321 19.2661 5.14608 18.283 3.41956 16.5428C1.69303 14.8025 0.728528 12.4477 0.738232 9.99632C0.747935 7.54494 1.73105 5.19782 3.4713 3.47129C4.32661 2.61082 5.34394 1.92836 6.46453 1.46333C7.58512 0.9983 8.78675 0.759926 9.99999 0.761976Z" fill="white"/>
<path d="M9.99998 1.54274C11.4871 1.53983 12.9482 1.9327 14.2333 2.68103H5.76668C7.05178 1.9327 8.51287 1.53983 9.99998 1.54274ZM16.0865 4.13917C16.4449 4.51071 16.7692 4.91371 17.0555 5.3433H2.94447C3.22778 4.91155 3.55228 4.50828 3.91343 4.13917H16.0865ZM17.8269 6.79203C17.9881 7.18313 18.1201 7.58561 18.222 7.99617H1.78737C1.88924 7.58561 2.0213 7.18313 2.18248 6.79203H17.8269ZM18.4384 9.45431C18.4478 9.63305 18.4572 9.8212 18.4572 9.99994C18.4621 10.2198 18.4526 10.4398 18.429 10.6585H1.571C1.55219 10.4421 1.54278 10.2163 1.54278 9.99994C1.53949 9.81786 1.54577 9.63573 1.5616 9.45431H18.429H18.4384ZM18.1844 12.1072C18.0804 12.5195 17.9419 12.9223 17.7704 13.3113H2.22011C2.05145 12.9212 1.91306 12.5186 1.80619 12.1072H18.1844ZM16.9802 14.7695C16.6839 15.205 16.3469 15.6113 15.9736 15.983H4.02632C3.65576 15.6089 3.31892 15.2028 3.01973 14.7695H16.9802ZM14.0451 17.4317C12.8042 18.1078 11.4131 18.4604 9.99998 18.4571C8.58745 18.4559 7.19738 18.1035 5.95482 17.4317H14.0357H14.0451Z" fill="#ED2939"/>
<path d="M10.4798 1.56154V10.7149H1.58041C1.5616 10.4797 1.55219 10.2445 1.55219 9.99992C1.5512 8.88982 1.76896 7.7904 2.19304 6.7645C2.61712 5.73859 3.23919 4.8063 4.02371 4.0209C4.80824 3.2355 5.73983 2.61239 6.76527 2.18718C7.7907 1.76196 8.88988 1.54297 9.99998 1.54272C10.1599 1.54272 10.3198 1.54272 10.4703 1.55213L10.4798 1.56154Z" fill="#002395"/>
<path d="M1.98495 7.30944L2.02258 7.43174L1.95673 7.3847L1.98495 7.30944ZM9.37912 9.25676L9.68956 10.2163L8.87112 9.62365H9.88712L9.06868 10.2163L9.37912 9.25676ZM9.37912 7.39411L9.68956 8.35366L8.87112 7.761H9.88712L9.06868 8.35366L9.37912 7.39411ZM9.37912 5.53146L9.68956 6.49101L8.87112 5.89834H9.88712L9.06868 6.49101L9.37912 5.53146ZM9.37912 3.66881L9.68956 4.62835L8.87112 4.03569H9.88712L9.06868 4.62835L9.37912 3.66881ZM9.37912 1.80615L9.68956 2.7657L8.87112 2.17304H9.88712L9.06868 2.7657L9.37912 1.80615ZM8.27846 8.32544L8.5889 9.28499L7.77046 8.69232H8.78646L7.96802 9.28499L8.27846 8.32544ZM8.27846 6.46278L8.5889 7.42233L7.77046 6.82967H8.78646L7.96802 7.42233L8.27846 6.46278ZM8.27846 4.60013L8.5889 5.55968L7.77046 4.96702H8.78646L7.96802 5.55968L8.27846 4.60013ZM8.27846 2.73748L8.5889 3.69703L7.77046 3.10436H8.78646L7.96802 3.69703L8.27846 2.73748ZM7.18721 9.25676L7.49765 10.2163L6.67921 9.62365H7.69521L6.87677 10.2163L7.18721 9.25676ZM7.18721 7.39411L7.49765 8.35366L6.67921 7.761H7.69521L6.87677 8.35366L7.18721 7.39411ZM7.18721 5.53146L7.49765 6.49101L6.67921 5.89834H7.69521L6.87677 6.49101L7.18721 5.53146ZM7.18721 3.66881L7.49765 4.62835L6.67921 4.03569H7.69521L6.87677 4.62835L7.18721 3.66881ZM7.25306 2.00371L7.50706 2.77511L6.72625 2.21067L6.80151 2.18245H7.70461L6.88618 2.77511L7.12136 2.06015L7.26247 2.01311L7.25306 2.00371ZM6.09596 8.32544L6.4064 9.28499L5.58796 8.69232H6.60395L5.78552 9.28499L6.09596 8.32544ZM6.09596 6.46278L6.4064 7.42233L5.58796 6.82967H6.60395L5.78552 7.42233L6.09596 6.46278ZM6.09596 4.60013L6.4064 5.55968L5.58796 4.96702H6.60395L5.78552 5.55968L6.09596 4.60013ZM6.09596 2.73748L6.4064 3.69703L5.58796 3.10436H6.60395L5.78552 3.69703L6.09596 2.73748ZM5.00471 9.25676L5.31515 10.2163L4.49671 9.62365H5.5127L4.69426 10.2163L5.00471 9.25676ZM5.00471 7.39411L5.31515 8.35366L4.49671 7.761H5.5127L4.69426 8.35366L5.00471 7.39411ZM5.00471 5.53146L5.31515 6.49101L4.49671 5.89834H5.5127L4.69426 6.49101L5.00471 5.53146ZM5.00471 3.66881L5.31515 4.62835L4.49671 4.03569H5.5127L4.69426 4.62835L5.00471 3.66881ZM3.90405 8.32544L4.21449 9.28499L3.39605 8.69232H4.41205L3.59361 9.28499L3.90405 8.32544ZM3.90405 6.46278L4.21449 7.42233L3.39605 6.82967H4.41205L3.59361 7.42233L3.90405 6.46278ZM3.90405 4.60013L4.21449 5.55968L3.39605 4.96702H4.41205L3.59361 5.55968L3.90405 4.60013ZM2.80339 9.25676L3.11383 10.2163L2.29539 9.62365H3.31139L2.48354 10.2163L2.79398 9.25676H2.80339ZM2.80339 7.39411L3.11383 8.35366L2.29539 7.761H3.31139L2.48354 8.35366L2.79398 7.39411H2.80339ZM2.8128 5.55027L3.12324 6.50041L2.52117 6.06768L2.60584 5.90775H3.32079L2.49295 6.50041L2.79398 5.5879L2.8128 5.55027ZM1.71214 8.32544L2.02258 9.28499L1.60866 8.98395L1.58984 9.15328L2.22014 8.69232H1.64629C1.6651 8.57003 1.68392 8.45714 1.71214 8.34425V8.32544ZM2.16369 6.82967H2.22014L2.13547 6.89552L2.16369 6.82967Z" fill="white"/>
</g>
<defs>
<clipPath id="clip0_23_26">
<rect width="20" height="20" fill="white"/>
</clipPath>
</defs>
</svg>
