<svg width="80" height="84" viewBox="0 0 80 84" fill="none" xmlns="http://www.w3.org/2000/svg">
<g clip-path="url(#clip0_843_10862)">
<path d="M40 84.0004C62.0964 84.0004 80 66.1508 80 44.121C80 22.0912 62.0811 4.25684 40 4.25684C17.9189 4.25684 0 22.1065 0 44.1362C0 66.166 17.9036 84.0156 40 84.0156V84.0004Z" fill="url(#paint0_linear_843_10862)" fill-opacity="0.2"/>
<path d="M68.5845 0H11.4001C9.93112 0 8.73755 1.18997 8.73755 2.65456V18.6124C8.73755 20.077 9.93112 21.267 11.4001 21.267H68.5845C70.0535 21.267 71.2471 20.077 71.2471 18.6124V2.65456C71.2471 1.18997 70.0535 0 68.5845 0Z" fill="#FF391F"/>
<path d="M34.6595 5.84277H20.7957C19.9082 5.84277 19.189 6.55981 19.189 7.44466C19.189 8.32952 19.9082 9.04655 20.7957 9.04655H34.6595C35.547 9.04655 36.2662 8.32952 36.2662 7.44466C36.2662 6.55981 35.547 5.84277 34.6595 5.84277Z" fill="#F7F8FA"/>
<path d="M44.2694 12.7539H20.8111C19.9236 12.7539 19.2043 13.4709 19.2043 14.3558C19.2043 15.2406 19.9236 15.9577 20.8111 15.9577H44.2694C45.1569 15.9577 45.8761 15.2406 45.8761 14.3558C45.8761 13.4709 45.1569 12.7539 44.2694 12.7539Z" fill="#F7F8FA"/>
<path d="M11.4001 26.7744H68.5845C69.2884 26.7744 69.977 27.049 70.4667 27.5525C70.9717 28.0559 71.2471 28.7272 71.2471 29.429V42.717C71.2471 43.4188 70.9717 44.1053 70.4667 44.5935C69.9617 45.097 69.2884 45.3716 68.5845 45.3716H11.4001C10.6962 45.3716 10.0076 45.097 9.51796 44.5935C9.01299 44.0901 8.73755 43.4188 8.73755 42.717V29.429C8.73755 28.7272 9.01299 28.0407 9.51796 27.5525C10.0229 27.049 10.6962 26.7744 11.4001 26.7744Z" fill="white"/>
<path d="M42.0505 31.0156H28.1867C27.2992 31.0156 26.58 31.7327 26.58 32.6175C26.58 33.5024 27.2992 34.2194 28.1867 34.2194H42.0505C42.938 34.2194 43.6572 33.5024 43.6572 32.6175C43.6572 31.7327 42.938 31.0156 42.0505 31.0156Z" fill="#FF391F"/>
<path opacity="0.2" d="M51.6604 37.9268H28.2021C27.3145 37.9268 26.5953 38.6438 26.5953 39.5286C26.5953 40.4135 27.3145 41.1305 28.2021 41.1305H51.6604C52.5479 41.1305 53.2671 40.4135 53.2671 39.5286C53.2671 38.6438 52.5479 37.9268 51.6604 37.9268Z" fill="#FF391F"/>
<path d="M18.0873 41.1152C20.8876 41.1152 23.1523 38.8573 23.1523 36.0654C23.1523 33.2735 20.8876 31.0156 18.0873 31.0156C15.2869 31.0156 13.0222 33.2735 13.0222 36.0654C13.0222 38.8573 15.2869 41.1152 18.0873 41.1152Z" fill="#FF391F"/>
<path d="M16.052 37.3168L15.8684 36.7523H15.0115L14.8432 37.3168H14.277L15.1492 34.8301H15.746L16.6182 37.3168H16.0367H16.052ZM15.1492 36.3557H15.7766L15.4552 35.3183L15.1492 36.3557Z" fill="white"/>
<path d="M17.3069 36.2335C17.0926 36.1572 16.9396 36.0504 16.8478 35.9436C16.756 35.8368 16.7101 35.6843 16.7101 35.5165C16.7101 35.2876 16.7866 35.1198 16.9549 34.9825C17.1232 34.8452 17.3375 34.7842 17.6282 34.7842C17.8578 34.7842 18.0873 34.8299 18.3168 34.9062V35.3181C18.0873 35.2419 17.8731 35.2114 17.6741 35.2114C17.3834 35.2114 17.2457 35.3029 17.2457 35.486C17.2457 35.547 17.2763 35.608 17.3222 35.6538C17.3681 35.6995 17.4599 35.7453 17.5976 35.7911L17.8577 35.8826C18.0873 35.9589 18.2403 36.0657 18.3321 36.1725C18.4239 36.2793 18.4698 36.4166 18.4698 36.5997C18.4698 36.8438 18.378 37.0421 18.2097 37.1794C18.0261 37.3167 17.7812 37.393 17.4752 37.393C17.3375 37.393 17.2151 37.393 17.0773 37.3625C16.9396 37.3319 16.8325 37.3014 16.7254 37.2557V36.8438C16.8478 36.8743 16.9702 36.9048 17.1079 36.9353C17.2457 36.9505 17.3681 36.9658 17.4752 36.9658C17.6129 36.9658 17.72 36.9353 17.7965 36.8895C17.8731 36.8438 17.919 36.7675 17.919 36.6759C17.919 36.5997 17.9037 36.5386 17.8424 36.4929C17.7965 36.4471 17.7047 36.4013 17.567 36.3556L17.2916 36.2488L17.3069 36.2335Z" fill="white"/>
<path d="M18.8218 37.3168V34.8301H19.3574V37.3168H18.8218Z" fill="white"/>
<path d="M20.2908 35.5929V37.3168H19.8164V34.8301H20.3979L21.4078 36.5693V34.8301H21.8822V37.3168H21.3007L20.2908 35.5929Z" fill="white"/>
<path d="M11.4001 48.041H68.5845C69.2884 48.041 69.977 48.3156 70.4667 48.8191C70.9717 49.3225 71.2471 49.9938 71.2471 50.6956V63.9836C71.2471 64.6854 70.9717 65.3719 70.4667 65.8601C69.9617 66.3636 69.2884 66.6382 68.5845 66.6382H11.4001C10.6962 66.6382 10.0076 66.3636 9.51796 65.8601C9.01299 65.3567 8.73755 64.6854 8.73755 63.9836V50.6956C8.73755 49.9938 9.01299 49.3073 9.51796 48.8191C10.0229 48.3156 10.6962 48.041 11.4001 48.041Z" fill="white"/>
<path d="M42.0505 52.2822H28.1867C27.2992 52.2822 26.58 52.9993 26.58 53.8841C26.58 54.769 27.2992 55.486 28.1867 55.486H42.0505C42.938 55.486 43.6572 54.769 43.6572 53.8841C43.6572 52.9993 42.938 52.2822 42.0505 52.2822Z" fill="#FF391F"/>
<path opacity="0.2" d="M51.6604 59.1934H28.2021C27.3145 59.1934 26.5953 59.9104 26.5953 60.7952C26.5953 61.6801 27.3145 62.3971 28.2021 62.3971H51.6604C52.5479 62.3971 53.2671 61.6801 53.2671 60.7952C53.2671 59.9104 52.5479 59.1934 51.6604 59.1934Z" fill="#FF391F"/>
<path d="M18.0873 62.3818C20.8876 62.3818 23.1523 60.1239 23.1523 57.332C23.1523 54.5401 20.8876 52.2822 18.0873 52.2822C15.2869 52.2822 13.0222 54.5401 13.0222 57.332C13.0222 60.1239 15.2869 62.3818 18.0873 62.3818Z" fill="#FF391F"/>
<path d="M16.052 58.5834L15.8684 58.0189H15.0115L14.8432 58.5834H14.277L15.1492 56.0967H15.746L16.6182 58.5834H16.0367H16.052ZM15.1492 57.6223H15.7766L15.4552 56.5849L15.1492 57.6223Z" fill="white"/>
<path d="M17.3069 57.5001C17.0926 57.4238 16.9396 57.317 16.8478 57.2102C16.756 57.1034 16.7101 56.9509 16.7101 56.7831C16.7101 56.5542 16.7866 56.3864 16.9549 56.2491C17.1232 56.1118 17.3375 56.0508 17.6282 56.0508C17.8578 56.0508 18.0873 56.0965 18.3168 56.1728V56.5847C18.0873 56.5085 17.8731 56.4779 17.6741 56.4779C17.3834 56.4779 17.2457 56.5695 17.2457 56.7526C17.2457 56.8136 17.2763 56.8746 17.3222 56.9204C17.3681 56.9661 17.4599 57.0119 17.5976 57.0577L17.8577 57.1492C18.0873 57.2255 18.2403 57.3323 18.3321 57.4391C18.4239 57.5459 18.4698 57.6832 18.4698 57.8663C18.4698 58.1104 18.378 58.3087 18.2097 58.446C18.0261 58.5833 17.7812 58.6596 17.4752 58.6596C17.3375 58.6596 17.2151 58.6596 17.0773 58.6291C16.9396 58.5985 16.8325 58.568 16.7254 58.5223V58.1104C16.8478 58.1409 16.9702 58.1714 17.1079 58.2019C17.2457 58.2171 17.3681 58.2324 17.4752 58.2324C17.6129 58.2324 17.72 58.2019 17.7965 58.1561C17.8731 58.1103 17.919 58.0341 17.919 57.9425C17.919 57.8663 17.9037 57.8052 17.8424 57.7595C17.7965 57.7137 17.7047 57.6679 17.567 57.6222L17.2916 57.5154L17.3069 57.5001Z" fill="white"/>
<path d="M18.8218 58.5834V56.0967H19.3574V58.5834H18.8218Z" fill="white"/>
<path d="M20.2908 56.8595V58.5834H19.8164V56.0967H20.3979L21.4078 57.8359V56.0967H21.8822V58.5834H21.3007L20.2908 56.8595Z" fill="white"/>
</g>
<defs>
<linearGradient id="paint0_linear_843_10862" x1="40" y1="4.36363" x2="40" y2="82.9019" gradientUnits="userSpaceOnUse">
<stop stop-color="#FF391F"/>
<stop offset="1" stop-color="#FF391F" stop-opacity="0"/>
</linearGradient>
<clipPath id="clip0_843_10862">
<rect width="80" height="84" fill="white"/>
</clipPath>
</defs>
</svg>
